<svg viewBox="104.82758620689651 155.32500000000005 384.91379310344837 318.82499999999993" xmlns="http://www.w3.org/2000/svg" xmlns:xlink="http://www.w3.org/1999/xlink" overflow="visible" width="384.91379310344837px" height="318.82499999999993px"><defs><polygon id="masterstickersscreen-3-path-1" points="0.387451308 0.0636109091 95.7120186 0.0636109091 95.7120186 107.039838 0.387451308 107.039838"/><polygon id="masterstickersscreen-3-path-3" points="0 0.0430364175 94.597948 0.0430364175 94.597948 101.420831 0 101.420831"/></defs><g id="Master/Stickers/Screen 3" stroke="none" stroke-width="1" fill="none" fill-rule="evenodd"><g id="UI-Copy-4" transform="translate(52.000000, 149.000000)"><g id="Group-45" transform="translate(55.502321, 8.221818)"><path d="M361.428081,47.1302745 C338.945738,46.0804782 74.42948,47.1320055 74.42948,47.1320055 C74.42948,47.1320055 48.0832219,46.4309873 44.9217577,73.7750236 C44.5913454,76.6362164 44.0597372,81.0141182 43.3746305,86.5512964 L376.126656,86.5512964 C377.256649,76.8439255 377.938287,70.9705182 377.938287,70.9705182 C377.938287,70.9705182 383.910423,48.1805036 361.428081,47.1302745" id="Fill-1" fill="#B2C7B2"/><path d="M63.5968145,69.6646338 C63.9857643,74.8694775 72.3154487,74.092732 72.7048321,69.4409138 C73.2221311,63.2563756 63.1185406,63.2715211 63.5968145,69.6646338" id="Fill-3" fill="#FE5C4F"/><path d="M90.0687767,69.6646338 C90.4577266,74.8694775 98.7874109,74.092732 99.1767943,69.4409138 C99.6940933,63.2563756 89.5905028,63.2715211 90.0687767,69.6646338" id="Fill-5" fill="#FEF864"/><path d="M117.363431,69.6646338 C117.752381,74.8694775 126.082065,74.092732 126.471448,69.4409138 C126.988747,63.2563756 116.885157,63.2715211 117.363431,69.6646338" id="Fill-7" fill="#DDF77D"/><path d="M43.3745871,86.5511233 C37.51042,133.937789 20.3320179,266.586872 20.3320179,266.586872 C20.3320179,266.586872 16.4681024,285.867469 38.9500114,285.166451 C39.531485,285.148276 40.2864032,285.1314 41.1874487,285.114956 C58.905264,284.795603 136.720819,284.828491 207.096462,284.933211 C271.581487,285.029276 329.812528,285.185058 329.812528,285.185058 C329.812528,285.185058 351.943211,287.426152 355.104675,263.938581 C357.678162,244.821989 371.18734,129.001669 376.126613,86.5511233 L43.3745871,86.5511233 Z" id="Fill-9" fill="#D5E1D5"/><polygon id="Fill-11" fill="#4947D9" points="286.328974 197.810195 332.933146 197.810195 340.481028 155.090493 293.653979 154.183064"/><polygon id="Fill-13" fill="#00DEB8" points="300.434889 113.795632 293.653633 154.182934 340.480681 155.090796 347.777068 113.795632"/><path d="M297.661724,113.795632 L81.9142282,113.795632 C78.9543935,113.795632 76.4216665,115.916429 75.90827,118.825221 L55.2965291,235.482436 C54.8143526,238.208185 56.9156358,240.706752 59.6890175,240.706752 L276.019721,240.706752 L279.12655,240.706752 L286.328844,197.810065 L293.653849,154.182934 L300.435106,113.795632 L297.661724,113.795632 Z" id="Fill-15" fill="#AFDCFD"/><polygon id="Fill-17" fill="#FF0048" points="279.126507 240.706839 325.353436 240.706839 332.932972 197.810152 286.3288 197.810152"/><path d="M286.328974,197.810195 L300.105257,190.388057 C301.919489,189.410526 302.934575,187.397046 302.56427,185.615508 C302.156241,183.650926 301.941603,180.661213 302.716034,176.559391 C304.264462,168.355748 307.935421,163.233122 314.173795,162.721639 C321.409476,162.128802 324.237059,166.394628 323.019477,176.559391 C322.480064,181.065813 321.135,184.113079 319.963381,186.003231 C319.001196,187.557155 319.279575,189.374609 320.607294,190.219293 L332.536391,197.810195 L286.328974,197.810195 Z" id="Fill-19" fill="#FE5C4F"/><path d="M294.273264,154.182934 L308.049547,146.761229 C309.863346,145.783698 310.878431,143.769785 310.508127,141.988247 C310.100531,140.024098 309.885894,137.033952 310.659891,132.932563 C312.208319,124.728487 315.879711,119.605861 322.118085,119.094378 C329.353766,118.501541 332.180916,122.767367 330.963767,132.932563 C330.42392,137.438985 329.078856,140.486251 327.907671,142.376403 C326.945052,143.930327 327.223431,145.747349 328.551151,146.592032 L340.480681,155.090796 L294.273264,154.182934 Z" id="Fill-21" fill="#FEF864"/><path d="M279.126507,240.706839 L292.90279,233.285133 C294.717022,232.30717 295.732108,230.29369 295.361803,228.512152 C294.953774,226.54757 294.73957,223.557857 295.513567,219.456468 C297.061995,211.252392 300.732954,206.129766 306.971761,205.618283 C314.207009,205.025446 317.034592,209.291272 315.817444,219.456468 C315.277597,223.96289 313.932533,227.009723 312.760914,228.900308 C311.798729,230.453799 312.077108,232.271253 313.404827,233.115937 L325.334358,240.706839 L279.126507,240.706839 Z" id="Fill-23" fill="#7D7AF9"/><path d="M84.6037059,224.496875 L85.3477839,224.496875 C88.909472,224.496875 91.9568963,221.945083 92.5752268,218.444752 L95.470887,202.05737 C96.2630959,197.572152 92.806342,193.46081 88.2434441,193.46081 L87.4993661,193.46081 C83.9376781,193.46081 80.8902538,196.013035 80.2714896,199.513366 L77.3758294,215.901181 C76.5836205,220.385533 80.0408081,224.496875 84.6037059,224.496875" id="Fill-25" fill="#FEF864"/><path d="M102.24629,216.012219 C101.387738,220.486186 104.785954,224.636473 109.349719,224.713499 C109.43861,224.714797 109.527934,224.716528 109.616824,224.717826 C114.898217,224.790957 119.454177,221.031855 120.371266,215.840859 L128.814123,168.056084 C129.606766,163.571299 126.149578,159.459957 121.58668,159.459957 L119.166259,159.459957 C115.64533,159.459957 112.620454,161.955062 111.957895,165.406495 L102.24629,216.012219 Z" id="Fill-27" fill="#7D7AF9"/><path d="M139.640675,224.111056 L141.347371,224.18159 C145.676986,224.361172 149.45071,221.265874 150.112402,216.991827 L160.042548,152.843903 C160.839093,147.696179 156.84943,143.052583 151.630477,143.052583 C147.515067,143.052583 143.988935,145.990801 143.255264,150.032041 L131.618855,214.10943 C130.697863,219.181427 134.479826,223.897288 139.640675,224.111056" id="Fill-29" fill="#FE5C4F"/><g id="Group-33" transform="translate(284.883008, 0.369116)"><mask id="masterstickersscreen-3-mask-2" fill="#fff"><use xlink:href="#masterstickersscreen-3-path-1"/></mask><g id="Clip-32"/><path d="M18.4736875,0.0781505455 C18.4736875,0.0781505455 4.84916843,-0.869954909 3.58172089,12.4104451 C2.31427335,25.6908451 0.413318849,50.987216 0.413318849,50.987216 C0.413318849,50.987216 -0.854128691,61.4224342 14.3548082,62.3709724 L33.8408927,62.3709724 C33.8408927,62.3709724 38.9106828,62.0550815 38.5937125,68.2210124 C38.2771759,74.3869433 39.5446234,105.059085 39.5446234,105.059085 C39.5446234,105.059085 40.653369,110.592801 44.2974433,103.161576 C47.9410839,95.7307833 58.3972009,66.1655578 58.3972009,66.1655578 C58.3972009,66.1655578 58.7141712,61.4224342 66.7940951,61.8967033 C74.8735853,62.3709724 81.685628,62.3709724 81.685628,62.3709724 C81.685628,62.3709724 90.0829558,63.0828087 91.0329994,55.2565033 C92.0988175,46.4820924 95.5482,14.9323796 95.5482,14.9323796 C95.5482,14.9323796 98.0037441,1.81771418 83.9039864,1.34344509 C69.8037952,0.868743273 18.4736875,0.0781505455 18.4736875,0.0781505455" id="Fill-31" fill="#FF00BF" mask="url(#masterstickersscreen-3-mask-2)"/></g><g id="Group-36" transform="translate(0.000000, 97.300025)"><mask id="masterstickersscreen-3-mask-4" fill="#fff"><use xlink:href="#masterstickersscreen-3-path-3"/></mask><g id="Clip-35"/><path d="M17.3595651,0.0578556364 C17.3595651,0.0578556364 3.73461244,-0.890682545 2.4671649,12.3897175 C1.19971736,25.6701175 0.0254963788,44.9874956 0.0254963788,44.9874956 C0.0254963788,44.9874956 -1.24151755,55.4218484 13.9674193,56.3708193 L40.7251751,56.7524847 C40.7251751,56.7524847 45.7945317,56.4357284 45.477995,62.6016593 C45.1857406,68.2859647 46.2398511,94.793972 46.406358,98.9040156 C46.4293395,99.4726193 46.5555205,100.03603 46.8191565,100.541023 C47.4027981,101.657892 48.7084035,102.585227 51.1808585,97.5426556 C54.8244992,90.1118629 65.2810498,60.5466375 65.2810498,60.5466375 C65.2810498,60.5466375 66.785683,56.1851793 73.6775103,56.2777829 C81.6004667,56.3846665 81.2986728,56.3708193 81.2986728,56.3708193 C81.2986728,56.3708193 89.6951333,57.0822229 90.6460442,49.2559175 C91.7114286,40.4819393 94.4340776,14.911652 94.4340776,14.911652 C94.4340776,14.911652 96.8896217,1.79698655 82.7898641,1.32271745 C68.6896728,0.848015636 17.3595651,0.0578556364 17.3595651,0.0578556364" id="Fill-34" fill="#00DEB8" mask="url(#masterstickersscreen-3-mask-4)"/></g><path d="M98.6482648,282.974644 C98.5008368,296.955629 103.721957,313.266851 131.27409,312.101949 C158.826657,310.936615 158.826657,297.654484 175.87194,309.072858 C187.85914,317.102545 207.168745,319.46264 223.504205,304.179145 C230.976639,297.188869 245.0816,302.383327 256.193772,306.276575 C278.142338,313.965705 300.028031,299.124458 300.090665,280.643975 C300.171123,256.91148 275.106621,246.65844 243.585205,256.91148 C232.856347,260.400993 227.202048,256.793345 220.702639,254.779433 C208.106647,250.8758 197.523916,245.759665 177.039223,259.439473 C177.039223,259.439473 166.765657,268.759985 147.61909,258.274571 C128.47209,247.788291 98.9266436,256.656604 98.6482648,282.974644" id="Fill-37" fill="#FE5C4F"/><path d="M268.203321,176.2554 C268.204951,175.186564 268.185439,174.105179 268.123432,172.998262 C265.281973,122.288684 176.528125,120.204237 177.845438,177.043397 C178.268209,195.281553 187.26739,207.581826 199.430204,214.148029 C205.601802,205.36756 223.051211,177.238124 223.051211,177.238124 L268.203321,176.2554 Z" id="Fill-39" fill="#DDF77D"/><path d="M257.011043,205.887915 C263.817449,198.724115 268.180018,188.822882 268.203433,176.255184 L223.051428,177.237908 L257.011043,205.887915 Z" id="Fill-41" fill="#7D7AF9"/><path d="M257.011043,205.887915 L223.051428,177.237908 C223.051428,177.237908 205.601585,205.367777 199.429987,214.148246 C217.543256,223.927017 242.676702,220.974951 257.011043,205.887915" id="Fill-43" fill="#FE5C4F"/></g></g></g></svg>