<svg viewBox="204 51 714.0000000000001 879.7499999999999" xmlns="http://www.w3.org/2000/svg" xmlns:xlink="http://www.w3.org/1999/xlink" overflow="visible" width="714.0000000000001px" height="879.7499999999999px"><defs><polygon id="masterspot-illustrationplanning-path-1" points="0.6017 0.148 107.7217 0.148 107.7217 265 0.6017 265"/><polygon id="masterspot-illustrationplanning-path-3" points="0.302904145 0.494 189.197939 0.494 189.197939 192.743236 0.302904145 192.743236"/></defs><g id="Master/Spot Illustration/Planning" stroke="none" stroke-width="1" fill="none" fill-rule="evenodd"><g id="Planning" transform="translate(25.000000, 63.000000) scale(1 1)"><defs><polygon id="planningpen-and-paper-path-1" points="0.6017 0.148 107.7217 0.148 107.7217 265 0.6017 265"/><polygon id="planningpen-and-paper-path-3" points="0.302904145 0.494 189.197939 0.494 189.197939 192.743236 0.302904145 192.743236"/></defs><g id="Planning/Pen and Paper" stroke="none" stroke-width="1" fill="none" fill-rule="evenodd"><g id="Group-33" transform="translate(211.000000, 0.000000)"><path d="M438.9089,130.2656 C438.9089,130.2656 178.6299,129.3266 92.8449,136.1146 C92.8449,136.1146 39.2289,134.7336 36.3049,201.7126 C33.3809,268.6916 36.3049,756.1056 36.3049,756.1056 C36.3049,756.1056 33.1369,801.9226 90.8949,801.9226 C138.6619,801.9226 410.6389,794.1236 443.7829,792.1736 C476.9279,790.2246 496.4239,778.5266 497.3989,726.8606 C498.3739,675.1946 497.3989,201.7126 497.3989,201.7126 C497.3989,201.7126 504.2139,130.2716 438.9089,130.2656" id="Fill-1" fill="#FE5C4F"/><path d="M467.7341,217.6768 L471.4031,736.9338 C471.4031,736.9338 471.4031,771.7868 442.8441,771.7868 C424.6351,771.7868 370.6711,774.1398 370.6711,774.1398 L46.7991,777.361654 C36.5521,777.4618 28.5211,768.5848 29.6441,758.3988 L35.0051,709.8008 L448.0071,190.3798 L460.2411,197.4818 L467.7341,217.6768 Z" id="Fill-3" fill="#DDF77D"/><path d="M112.6662,178.6826 C112.6662,178.6826 84.0712,174.7836 78.5472,203.0526 C75.8872,216.6666 74.3202,312.5316 59.7012,415.8906 C41.7832,542.5626 9.8332,683.0356 0.8862,728.4856 C0.8862,728.4856 -8.0498,763.4166 30.8332,766.7906 C64.5562,769.7176 403.8152,760.9796 403.8152,760.9796 C403.8152,760.9796 427.2112,764.2296 429.8112,736.2846 C431.2812,720.4756 450.9442,571.8786 460.3552,436.3616 C467.5802,332.3276 468.6462,252.3246 467.6032,211.7866 C467.6032,211.7866 469.1282,180.4696 442.1592,177.9856 C414.9442,175.4786 112.6662,178.6826 112.6662,178.6826" id="Fill-5" fill="#F8FBF8"/><path d="M116.5656,259.1055 L116.5656,229.1055 L131.639572,229.119976 C140.361145,229.139394 147.617677,229.179787 156.044145,229.249682 L181.755469,229.48031 C191.247151,229.552694 199.613176,229.586406 211.067399,229.595134 L218.849033,229.59793 L223.22302,229.608821 C239.088146,229.677932 249.200919,230.071897 263.436175,231.020887 L273.195942,231.697361 C288.582161,232.749984 298.501713,233.143634 315.715571,233.184826 L336.327166,233.205658 C344.562284,233.224783 351.641463,233.261244 359.985352,233.321648 L379.887883,233.476161 C392.168215,233.56381 401.787553,233.598778 416.770396,233.603047 L420.0626,233.6035 L420.0626,263.6035 L400.602002,263.581216 C392.024864,263.557752 384.529228,263.514036 375.198006,263.442104 L359.069343,263.315837 C346.789212,263.228189 337.17012,263.193222 322.187708,263.188953 L317.775136,263.18807 L313.401025,263.177179 C297.535457,263.108067 287.422444,262.714095 273.186982,261.765092 L263.427186,261.088616 C248.041189,260.036007 238.121888,259.642365 220.908535,259.601174 L202.690304,259.583104 C192.291496,259.560032 183.978607,259.507186 173.291878,259.410138 L156.158142,259.251671 C145.089522,259.159123 136.112243,259.117685 123.22661,259.107866 L116.5656,259.1055 Z" id="Stroke-7" fill="#A2D249" fill-rule="nonzero"/><path d="M110.716,346.475 L110.7165,316.4766 L110.691604,316.475528 C111.105175,316.44068 151.353382,315.564449 179.188685,315.060852 L190.826288,314.855942 L218.461543,314.395096 C223.535613,314.298635 228.931784,314.182895 235.585446,314.029011 L286.310501,312.821779 C290.592976,312.728815 294.401288,312.652477 298.125803,312.584878 L313.529374,312.326271 C328.060568,312.064807 338.157965,311.766475 348.988734,311.324172 L364.052176,310.677801 C374.232776,310.257019 382.506831,309.998666 394.123581,309.775858 L403.544919,309.613434 L404.014081,339.609766 L396.485979,339.736812 C383.55178,339.97388 374.964864,340.244043 363.746039,340.716689 L350.897102,341.271096 C339.821646,341.728143 329.585534,342.036806 315.02152,342.304086 L296.514993,342.619896 C292.195085,342.701552 287.659331,342.796885 282.311743,342.917951 L231.837892,344.122238 C222.863444,344.323465 216.10237,344.452764 208.642666,344.568788 C202.900606,344.658055 197.130133,344.752451 191.338972,344.851561 L166.795608,345.298984 C156.321388,345.501783 145.199712,345.729326 135.645393,345.929938 L110.716,346.475 Z" id="Stroke-9" fill="#A2D249" fill-rule="nonzero"/><path d="M98.3689,429.0117 L98.3689,399.0117 L107.903426,399.02174 C121.044413,399.052236 130.333099,399.155484 142.730579,399.375794 L159.516672,399.683109 C172.308004,399.898104 182.150172,399.980406 197.960387,399.987232 L204.57056,399.993916 C222.609482,400.04733 233.192372,400.452374 250.021653,401.492455 L255.936844,401.859087 C272.042148,402.834352 282.229904,403.175563 300.890346,403.188326 L308.51744,403.182022 C324.736835,403.14642 334.739146,402.963614 350.43787,402.518241 L359.22301,402.271393 C374.198341,401.870032 384.64826,401.724532 402.700085,401.718873 L403.8149,401.7187 L403.8149,431.7187 L396.379853,431.727562 C381.016985,431.767174 371.186137,431.94473 356.316585,432.36259 L347.51345,432.611105 C332.348136,433.022962 321.955695,433.176589 304.208597,433.188005 L298.639845,433.185137 C279.61522,433.143375 268.905349,432.728416 251.179146,431.623168 L245.302302,431.260673 C230.66892,430.384706 220.821609,430.042145 204.49745,429.993798 L189.668619,429.975236 C176.067886,429.939366 166.522613,429.822063 152.97432,429.572036 L139.654187,429.326789 C127.712308,429.12361 118.425737,429.035138 104.701509,429.01586 L98.3689,429.0117 Z" id="Stroke-11" fill="#A2D249" fill-rule="nonzero"/><path d="M381.450416,491.64593 L381.918984,521.64227 L378.776335,521.69595 C361.782694,522.012881 352.275173,522.653887 336.629599,524.233365 L333.734206,524.528275 C315.772709,526.355395 305.266933,527.04766 284.934288,527.365266 L256.248601,527.790137 L211.624827,528.369881 L180.571226,528.833218 C167.769325,529.009252 158.891293,529.052494 147.450141,529.020098 L130.713656,528.952742 C120.279163,528.92305 112.036591,528.956954 100.88917,529.098957 L90.8179933,529.24327 L90.3494067,499.24693 L96.664259,499.152945 C111.999884,498.937621 121.647271,498.908822 136.254592,498.97291 L147.504592,499.020137 C159.098424,499.053082 167.990202,499.00742 181.1692,498.822003 L217.590062,498.28499 L259.025633,497.749016 C266.214433,497.648846 273.62112,497.538173 283.372211,497.386009 L287.608169,497.315249 C303.582696,497.01733 312.942262,496.43305 327.003015,495.052105 L335.526387,494.193944 C351.475175,492.612394 361.823454,491.971004 380.351022,491.66363 L381.450416,491.64593 Z" id="Stroke-13" fill="#A2D249" fill-rule="nonzero"/><path d="M71.0739,611.4648 L71.0739,581.4648 L74.3902839,581.469463 C92.7151367,581.522737 103.351306,582.03988 119.92292,583.395953 L125.828205,583.886176 C141.659332,585.181998 151.565899,585.663012 169.011384,585.713314 L173.342063,585.717541 L179.703305,585.704192 C193.813677,585.648481 203.198416,585.414934 216.300579,584.880024 L227.046881,584.424494 C242.685594,583.776944 253.132862,583.536393 271.197731,583.518847 L281.796278,583.509306 C294.240848,583.481791 303.087566,583.384515 314.259254,583.175569 L333.186201,582.795671 C345.980477,582.556514 355.804649,582.461374 371.252574,582.449982 L374.5709,582.4488 L374.5709,612.4488 L365.202423,612.459612 C350.039591,612.498221 340.142237,612.645236 324.303827,612.979952 L317.132076,613.126165 C302.849032,613.404299 292.659677,613.50912 275.634231,613.517278 L271.210088,613.518844 C253.616255,613.536001 243.546095,613.767122 228.310659,614.397855 L218.592977,614.811092 C203.892377,615.419798 193.778908,615.668875 177.613395,615.711147 L171.111675,615.717288 L167.792529,615.709234 C150.890759,615.641095 140.510478,615.157713 125.396109,613.949232 L115.609436,613.144812 C101.153455,611.987435 91.4565606,611.536447 75.3362058,611.472824 L71.0739,611.4648 Z" id="Stroke-15" fill="#A2D249" fill-rule="nonzero"/><path d="M358.145298,672.651027 L370.6712,672.6514 L370.6712,702.6514 L281.153751,702.630993 L259.054285,702.634499 C241.59767,702.657163 231.091064,702.776995 213.650527,703.072744 L204.876906,703.215064 C192.31087,703.407206 182.65716,703.493149 168.595444,703.51413 L154.368513,703.525821 C137.579169,703.560767 127.259339,703.743144 111.028954,704.188932 L103.070651,704.406457 C88.3368491,704.794236 77.9941947,704.953173 61.5825922,704.980153 L56.1262,704.9844 L56.1262,674.9844 L62.6353107,674.978173 C78.1168775,674.946499 88.0938912,674.790016 102.230605,674.418186 L114.962374,674.072893 C129.204239,673.702857 139.452977,673.550052 155.514958,673.523647 L171.67631,673.508248 C186.86414,673.473015 197.052377,673.349895 213.141873,673.077056 L222.391523,672.927487 C234.961148,672.736873 244.676663,672.653228 258.993125,672.634558 L358.145298,672.651027 Z" id="Stroke-17" fill="#A2D249" fill-rule="nonzero"/><path d="M551.674,98.7764 C551.674,98.7764 553.649,65.6784 553.883,56.8264 C554.548,31.6864 566.53,29.8584 569.931,51.7344 C573.733,76.1934 576.116,97.3554 576.116,97.3554 C576.116,97.3554 563.256,113.8924 551.674,98.7764" id="Fill-19" fill="#67AD15"/><path d="M628.2692,472.374 C626.5632,441.724 615.5962,282.095 615.5962,282.095 L609.0162,188.268 L524.0442,190.38 C524.0442,190.38 535.4832,402.124 545.6022,578.822 L638.0192,569.654 C634.1662,535.578 629.2742,490.425 628.2692,472.374" id="Fill-21" fill="#A2D249"/><path d="M588.6716,103.0449 C588.6716,103.0449 587.2046,85.6669 570.5106,85.6669 C556.8636,85.6669 545.0436,83.4739 539.3166,106.6259 C534.2886,126.9489 524.0446,190.3799 524.0446,190.3799 L566.5566,189.3229 L609.0166,188.2679 L588.6716,103.0449 Z" id="Fill-23" fill="#DDF77D"/><g id="Group-27" transform="translate(545.000000, 569.506000)"><mask id="planningpen-and-paper-mask-2" fill="#ffffff"><use xlink:href="#planningpen-and-paper-path-1" fill="#ffffff"/></mask><g id="Clip-26"/><path d="M53.4557,264.911 C53.4557,264.911 107.0717,267.835 107.7217,240.215 L97.8917,42.325 C97.8917,42.325 95.7087,23.933 93.0187,0.148 L0.6017,9.316 C7.5377,130.424 13.8517,235.068 15.4377,243.79 C19.3367,265.235 53.4557,264.911 53.4557,264.911" id="Fill-25" fill="#67AD15" mask="url(#planningpen-and-paper-mask-2)"/></g><path d="M616.3278,508.8242 C616.3278,508.8242 622.5018,623.2042 623.1518,638.1512 C623.8018,653.0982 630.3008,784.7002 630.3008,784.7002 C630.3008,784.7002 629.8128,794.9362 638.4238,795.4242 C647.0348,795.9112 655.3208,795.4242 655.3208,795.4242 C655.3208,795.4242 664.7448,795.5862 665.0688,780.9642 C665.3938,766.3412 659.8698,671.6202 659.8698,649.8492 C659.8698,628.0782 650.7718,514.9982 650.9338,514.5112 C651.0968,514.0232 649.3088,494.5262 637.2858,495.1772 C625.2638,495.8262 625.2638,496.3132 625.2638,496.3132 C625.2638,496.3132 615.7158,497.4582 616.3278,508.8242" id="Fill-28" fill="#DDF77D"/><g id="Group-32" transform="translate(176.000000, 0.506000)"><mask id="planningpen-and-paper-mask-4" fill="#ffffff"><use xlink:href="#planningpen-and-paper-path-3" fill="#ffffff"/></mask><g id="Clip-31"/><path d="M81.5876,50.2098 C81.3816,26.6578 120.9326,25.5148 120.905614,50.5458 C120.8786,75.7928 81.7966,74.1058 81.5876,50.2098 M188.9816,106.7498 C188.4936,92.6148 166.5606,94.5638 166.5606,94.5638 L147.1456,94.1428 C142.1276,94.0338 139.9896,87.7738 143.8546,84.5718 C151.7856,77.9988 157.6926,67.7898 158.7616,53.6218 C160.7116,27.7888 142.7256,0.4938 103.1966,0.4938 C70.0526,0.4938 50.2096,14.8048 44.8686,42.1778 C40.1366,66.4318 49.5236,79.8228 57.6366,86.6038 C60.3226,88.8488 58.8616,93.2308 55.3696,93.4768 C45.4306,94.1768 31.1776,95.1828 19.3606,96.0268 C-1.1104,97.4888 0.3246,112.1108 0.3246,112.1108 L0.3246,179.5668 C0.3246,186.9908 6.4556,192.9488 13.8766,192.7378 L176.2596,188.1238 C183.3596,187.9218 189.0216,182.1368 189.0616,175.0338 C189.1756,154.9138 189.3346,116.9908 188.9816,106.7498" id="Fill-30" fill="#70A0E6" mask="url(#planningpen-and-paper-mask-4)"/></g></g></g></g><g transform="translate(-28.000000, 174.000000) scale(1 1)" id="Master/Character/Standing"><g id="Master/Character/Standing" stroke="none" stroke-width="1" fill="none" fill-rule="evenodd"><g id="Standing/Lower Body" transform="translate(14.000000, 442.000000) scale(1 1)"><g id="Standing/Lower Body/Sstanding" stroke="none" stroke-width="1" fill="none" fill-rule="evenodd"><g id="Group-332" transform="translate(236.000000, -1.000000)"><g id="Group-126" transform="translate(0.000000, 0.142000)"><path d="M72.0978,172.4369 L35.7948,172.4369 C9.5208,172.4369 8.5178,190.2879 8.5178,190.2879 L10.6818,271.3909 C10.6818,271.3909 12.9308,287.5639 39.4058,287.5639 L75.7078,287.5639 C102.1828,287.5639 103.8888,268.5599 103.8888,268.5599 L103.928158,189.2869 C103.928158,189.2869 104.3898,172.4369 72.0978,172.4369" id="Fill-98" fill="#ef9e89"/><polygon id="Fill-100" fill="#F8FBF8" points="9.7379 236.017 103.9279 236.017 103.8879 268.56 10.3719 267.807"/><path d="M64.5915,242.2348 L9.7375,242.2348 L10.1225,250.2568 C10.1225,250.2568 55.2505,250.4588 63.6745,250.2568 C72.0975,250.0568 103.9285,250.3468 103.9285,250.3468 L103.9285,242.3848 C103.9285,242.3848 67.9165,242.2348 64.5915,242.2348" id="Fill-102" fill="#FE5C4F"/><path d="M126.7531,268.56 L103.8891,267.689 L61.9691,267.689 C61.9691,267.689 16.9911,267.306 10.3721,267.807 C8.3621,267.959 7.3131,268.61 6.9201,271.391 C6.9201,271.391 6.2101,285.107 8.7681,296.539 L46.8391,296.539 L122.4711,296.539 L162.5351,296.539 C162.5431,296.339 162.5551,296.144 162.5551,295.937 C162.5551,284.806 139.5391,273.975 126.7531,268.56" id="Fill-104" fill="#FE5C4F"/><path d="M122.4709,296.5385 L46.8389,296.5385 L8.7679,296.5385 C8.7679,296.5385 5.8129,302.8815 6.9899,307.2315 L47.0539,307.2315 L111.2079,307.2315 L151.2729,307.2315 C151.2729,307.2315 162.1319,307.0665 162.5349,296.5385 L122.4709,296.5385 Z" id="Fill-106" fill="#D5E1D5"/><path d="M110.0558,249.7562 C110.0558,249.7562 101.7828,254.8702 102.8348,264.6492 C103.8888,274.4262 116.5408,278.9392 123.8948,273.3732 C141.8798,259.7632 123.4438,242.2352 110.0558,249.7562" id="Fill-108" fill="#FF9786"/><path d="M126.151,281.8949 C125.678,281.8949 125.205,281.7199 124.836,281.3679 C124.076,280.6409 124.049,279.4369 124.776,278.6769 C128.102,275.1999 135.7,268.4719 136.022,268.1869 C136.809,267.4909 138.012,267.5639 138.708,268.3519 C139.405,269.1389 139.331,270.3409 138.544,271.0379 C138.466,271.1069 130.743,277.9449 127.526,281.3069 C127.152,281.6989 126.652,281.8949 126.151,281.8949" id="Fill-110" fill="#000"/><path d="M133.6945,284.9115 C133.2225,284.9115 132.7485,284.7355 132.3795,284.3835 C131.6205,283.6565 131.5925,282.4515 132.3195,281.6925 C135.6465,278.2155 143.2435,271.4885 143.5655,271.2035 C144.3525,270.5075 145.5555,270.5805 146.2525,271.3675 C146.9485,272.1545 146.8745,273.3575 146.0875,274.0545 C146.0095,274.1235 138.2865,280.9615 135.0705,284.3235 C134.6965,284.7145 134.1955,284.9115 133.6945,284.9115" id="Fill-112" fill="#000"/><path d="M140.4128,288.0736 C139.9398,288.0736 139.4658,287.8986 139.0978,287.5466 C138.3378,286.8196 138.3108,285.6146 139.0378,284.8546 C142.3638,281.3786 149.9618,274.6506 150.2838,274.3656 C151.0708,273.6696 152.2738,273.7436 152.9698,274.5306 C153.6658,275.3176 153.5928,276.5206 152.8058,277.2176 C152.7278,277.2856 145.0048,284.1246 141.7878,287.4856 C141.4138,287.8766 140.9138,288.0736 140.4128,288.0736" id="Fill-114" fill="#000"/><path d="M103.9274,300.5482 C103.4944,300.5482 103.0594,300.4012 102.7024,300.1012 C101.8984,299.4232 101.7954,298.2232 102.4724,297.4192 C102.6664,297.1852 107.2884,291.4682 103.1174,285.2662 C98.6294,278.5912 100.8634,272.4132 100.9604,272.1532 C101.3284,271.1692 102.4234,270.6692 103.4104,271.0382 C104.3904,271.4062 104.8894,272.4962 104.5294,273.4782 C104.4524,273.6912 102.9274,278.1612 106.2764,283.1422 C110.9104,290.0332 107.7194,297.0982 105.3844,299.8702 C105.0074,300.3182 104.4694,300.5482 103.9274,300.5482" id="Fill-116" fill="#000"/><path d="M106.7956,23.5502 L106.7956,23.5502 C106.7956,10.8472 96.4976,0.5492 83.7946,0.5492 L26.5036,0.5492 C13.8006,0.5492 3.5026,10.8472 3.5026,23.5502 C3.5026,23.5502 4.4566,174.5932 4.4566,184.7952 C4.4566,184.7952 4.1056,190.2872 8.5176,190.2872 L103.8376,190.2872 C103.8376,190.2872 109.7546,190.2872 109.7546,182.7662 C109.7546,175.3452 106.7956,23.5502 106.7956,23.5502" id="Fill-118" fill="#70A0E6"/><path d="M4.6588,34.9222 L27.6088,34.9222 C29.7318,34.9222 31.4508,36.6402 31.4458109,38.7632 C31.4258,47.1692 30.0098,66.4942 17.4608,67.0342 C5.0078,67.5692 1.6968,47.9422 0.8388,39.1172 C0.6198,36.8652 2.3968,34.9222 4.6588,34.9222" id="Fill-120" fill="#3164CF"/><path d="M66.0016,34.9222 L88.9516,34.9222 C91.0746,34.9222 92.7936,36.6402 92.7886109,38.7632 C92.7686,47.1692 91.3526,66.4942 78.8036,67.0342 C66.3506,67.5692 63.0396,47.9422 62.1816,39.1172 C61.9626,36.8652 63.7396,34.9222 66.0016,34.9222" id="Fill-122" fill="#3164CF"/><path d="M44.4865,306.7152 C43.4355,306.7152 42.5835,305.8632 42.5835,304.8122 C42.5835,304.1522 42.6145,303.8222 42.6445,303.4922 C42.6675,303.2502 42.6905,303.0092 42.6905,302.5262 C42.6905,301.9622 42.6875,301.6812 42.6845,301.4002 C42.6815,301.1092 42.6785,300.8182 42.6785,300.2362 C42.6785,299.7852 42.6535,299.5852 42.6215,299.3322 C42.5815,299.0242 42.5325,298.6402 42.5325,297.9452 C42.5325,297.1642 42.6485,296.7042 42.7785,296.2652 C42.8445,296.0392 42.8695,295.9552 42.8695,295.6562 C42.8695,294.9042 42.9485,294.4882 43.0125,294.1542 C43.0605,293.9082 43.0885,293.7602 43.0885,293.3692 C43.0885,293.1642 43.0795,293.1422 42.9965,292.9332 C42.8115,292.4712 42.6315,291.9482 42.6315,291.0822 L42.6285,288.7952 C42.6285,287.7992 42.9085,287.2012 43.0765,286.8432 C43.1645,286.6552 43.1645,286.6552 43.1645,286.5072 C43.1645,285.7522 43.2455,285.3352 43.3105,285.0002 C43.3585,284.7562 43.3865,284.6082 43.3865,284.2192 C43.3865,283.7002 43.3725,283.4412 43.3575,283.1812 C43.3405,282.8682 43.3225,282.5552 43.3225,281.9292 C43.3195,281.9092 43.2875,281.8662 43.2585,281.8212 C43.0205,281.4562 42.5785,280.7762 42.5785,279.6392 C42.5785,278.4672 43.0625,277.7762 43.3225,277.4032 C43.3385,277.3812 43.3555,277.3582 43.3715,277.3352 C43.3555,277.2562 43.3295,277.2182 43.3065,277.1782 C43.0795,276.7962 42.6995,276.1572 42.6995,275.0632 C42.6995,274.2652 42.8255,273.7962 42.9665,273.3482 C43.0355,273.1282 43.0585,273.0542 43.0585,272.7742 C43.0585,272.1052 43.0955,271.7492 43.1275,271.4362 C43.1515,271.1972 43.1755,270.9602 43.1755,270.4852 C43.1755,270.2032 43.1535,270.1282 43.0835,269.9072 C42.9435,269.4602 42.8175,268.9912 42.8175,268.1942 C42.8175,267.4042 42.9235,266.9512 42.9995,266.6202 C43.0535,266.3872 43.0835,266.2592 43.0835,265.9042 C43.0835,265.1162 43.1875,264.6632 43.2625,264.3342 C43.3155,264.1062 43.3445,263.9792 43.3455,263.6422 C43.3275,263.6142 43.3075,263.5882 43.2895,263.5622 C43.0285,263.1912 42.5445,262.4982 42.5445,261.3262 C42.5445,260.6232 42.5985,260.2342 42.6415,259.9212 C42.6765,259.6642 42.7025,259.4792 42.7025,259.0362 C42.7025,258.5912 42.6775,258.4032 42.6425,258.1452 C42.6005,257.8332 42.5485,257.4452 42.5485,256.7452 C42.5485,255.9702 42.6605,255.5142 42.7855,255.0772 C42.8485,254.8542 42.8755,254.7612 42.8755,254.4552 C42.8755,253.8082 42.9015,253.4842 42.9265,253.1592 C42.9465,252.9112 42.9665,252.6632 42.9665,252.1662 C42.9665,251.9822 42.9635,251.9732 42.8755,251.7662 C42.6745,251.2952 42.4795,250.7622 42.4795,249.8752 C42.4795,248.7672 42.8735,248.1222 43.1085,247.7372 C43.1365,247.6922 43.1675,247.6482 43.1915,247.5962 C43.1795,247.2202 43.1505,247.0882 43.0975,246.8512 C43.0255,246.5232 42.9255,246.0752 42.9255,245.2942 C42.9255,244.6982 42.9335,244.4002 42.9415,244.1022 C42.9475,243.8272 42.9545,243.5532 42.9545,243.0042 C42.9545,242.2292 43.0495,241.7822 43.1205,241.4572 C43.1715,241.2242 43.2005,241.0822 43.2005,240.7122 C43.2005,240.6422 43.1945,240.6132 43.1945,240.6132 C43.1765,240.5692 43.1475,240.5242 43.1215,240.4762 C42.9195,240.1032 42.5815,239.4802 42.5815,238.4252 C42.5815,237.5112 42.7815,236.9742 42.9135,236.6182 C42.9925,236.4062 43.0075,236.3682 43.0075,236.1392 C43.0075,235.9802 43.0075,235.9802 42.9175,235.7842 C42.6995,235.3052 42.4865,234.7612 42.4865,233.8522 C42.4865,232.7302 42.8955,232.0812 43.1395,231.6942 C43.1685,231.6482 43.1995,231.6052 43.2245,231.5542 C43.2075,231.1632 43.1775,231.0042 43.1335,230.7632 C43.0715,230.4312 42.9955,230.0182 42.9955,229.2712 C42.9955,228.6052 43.0305,228.2512 43.0625,227.9392 C43.0865,227.6992 43.1095,227.4612 43.1095,226.9832 C43.1095,226.3552 43.1285,226.0402 43.1465,225.7262 C43.1615,225.4682 43.1765,225.2102 43.1765,224.6942 C43.1765,224.1032 43.1815,223.8082 43.1875,223.5132 C43.1925,223.2352 43.1975,222.9572 43.1975,222.4012 C43.1875,222.3502 43.1565,222.3062 43.1285,222.2612 C42.8875,221.8742 42.4855,221.2272 42.4855,220.1112 C42.4855,219.2862 42.6115,218.8162 42.7045,218.4712 C42.7655,218.2442 42.7935,218.1402 42.7935,217.8192 C42.7935,217.2752 42.7845,217.0032 42.7765,216.7322 C42.7665,216.4312 42.7575,216.1292 42.7575,215.5272 C42.7575,214.7052 42.8825,214.2362 42.9735,213.8922 C43.0335,213.6632 43.0615,213.5592 43.0615,213.2342 C43.0615,213.0682 43.0615,213.0682 42.9705,212.8662 C42.7575,212.3882 42.5485,211.8462 42.5485,210.9422 C42.5485,210.0682 42.7335,209.5402 42.9235,209.0752 C43.0075,208.8692 43.0165,208.8482 43.0165,208.6492 C43.0165,208.2922 42.9865,208.1632 42.9325,207.9312 C42.8555,207.5992 42.7505,207.1462 42.7505,206.3542 C42.7505,205.7192 42.7715,205.4022 42.7915,205.0852 C42.8085,204.8302 42.8255,204.5752 42.8255,204.0652 C42.8255,203.1812 43.0005,202.6582 43.1165,202.3132 C43.1885,202.0992 43.2105,202.0342 43.2105,201.7732 C43.2105,201.4972 43.1865,201.4242 43.1165,201.2082 C43.0075,200.8662 42.8405,200.3502 42.8405,199.4782 C42.8405,198.7532 42.9045,198.3522 42.9565,198.0292 C42.9955,197.7832 43.0245,197.6052 43.0245,197.1822 C43.0245,196.3942 43.1435,195.9312 43.2765,195.4872 C43.3435,195.2652 43.3685,195.1812 43.3685,194.8862 C43.3685,194.7372 43.3685,194.7372 43.2785,194.5492 C43.1095,194.1902 42.8255,193.5882 42.8255,192.5872 C42.8255,192.1742 42.7975,192.0092 42.7545,191.7602 C42.6975,191.4322 42.6275,191.0252 42.6275,190.2872 C42.6275,189.3712 42.8275,188.8332 42.9595,188.4772 C43.0375,188.2672 43.0535,188.2232 43.0535,187.9902 C43.0535,187.3702 43.0685,187.0612 43.0845,186.7502 C43.0965,186.4862 43.1095,186.2232 43.1095,185.6942 C43.1095,185.0902 43.1195,184.7872 43.1295,184.4852 C43.1375,184.2132 43.1465,183.9422 43.1465,183.3992 C43.1465,182.9472 43.1205,182.7482 43.0875,182.4952 C43.0475,182.1852 42.9975,181.7982 42.9975,181.1012 C42.9975,180.8372 42.9755,180.7722 42.9035,180.5572 C42.7875,180.2102 42.6115,179.6872 42.6115,178.8012 C42.6115,178.3152 42.5885,178.0712 42.5665,177.8282 C42.5355,177.4972 42.5045,177.1652 42.5045,176.5022 C42.5045,175.8312 42.5405,175.4762 42.5725,175.1612 C42.5965,174.9222 42.6215,174.6832 42.6215,174.2042 C42.6215,173.6422 42.6175,173.3602 42.6145,173.0782 C42.6115,172.7852 42.6075,172.4922 42.6075,171.9062 C42.6075,171.2712 42.6285,170.9522 42.6495,170.6352 C42.6655,170.3782 42.6825,170.1222 42.6825,169.6102 C42.6825,168.8312 42.7965,168.3722 42.9235,167.9342 C42.9875,167.7102 43.0135,167.6172 43.0135,167.3122 C43.0135,166.5632 43.0905,166.1492 43.1525,165.8172 C43.1965,165.5732 43.2265,165.4132 43.2265,165.0122 C43.2265,164.5732 43.1995,164.3892 43.1625,164.1342 C43.1165,163.8182 43.0605,163.4242 43.0605,162.7122 C43.0605,162.0762 43.0805,161.7592 43.1015,161.4412 C43.1175,161.1842 43.1345,160.9272 43.1345,160.4142 C43.1345,160.0452 43.1055,159.9132 43.0525,159.6722 C42.9815,159.3452 42.8835,158.8972 42.8835,158.1162 C42.8835,157.2562 43.0575,156.7362 43.2365,156.2772 C43.3185,156.0672 43.3315,156.0342 43.3315,155.8182 C43.3315,155.4732 43.3025,155.3562 43.2445,155.1222 C43.1615,154.7852 43.0475,154.3222 43.0475,153.5172 C43.0475,153.2302 43.0225,153.1482 42.9545,152.9302 C42.8165,152.4822 42.6925,152.0142 42.6925,151.2182 C42.6925,150.4292 42.8125,149.9652 42.9455,149.5222 C43.0125,149.2982 43.0375,149.2142 43.0375,148.9192 C43.0375,148.4972 43.0085,148.3192 42.9685,148.0732 C42.9165,147.7502 42.8515,147.3482 42.8515,146.6202 C42.8515,145.7112 43.0625,145.1662 43.2785,144.6872 C43.3575,144.5132 43.3685,144.4882 43.3695,144.3792 C43.3535,144.3582 43.3365,144.3372 43.3195,144.3152 C43.0355,143.9362 42.5045,143.2322 42.5045,142.0212 C42.5045,141.3752 42.5285,141.0522 42.5525,140.7292 C42.5715,140.4772 42.5905,140.2252 42.5905,139.7212 C42.5905,139.0642 42.6185,138.7352 42.6475,138.4062 C42.6685,138.1602 42.6905,137.9132 42.6905,137.4202 C42.6905,136.6222 42.8155,136.1532 42.9545,135.7062 C43.0245,135.4832 43.0475,135.4082 43.0475,135.1232 C43.0475,134.8452 43.0245,134.7712 42.9545,134.5512 C42.8125,134.1012 42.6835,133.6302 42.6835,132.8292 C42.6835,132.0132 42.8045,131.5462 42.8925,131.2052 C42.9515,130.9792 42.9805,130.8652 42.9805,130.5322 C42.9805,130.0612 42.9545,129.8242 42.9285,129.5892 C42.8945,129.2712 42.8555,128.9102 42.8555,128.2332 C42.8555,127.3222 43.0685,126.7782 43.2865,126.2962 C43.3775,126.0972 43.3775,126.0972 43.3775,125.9342 C43.3765,125.9282 43.3435,125.8852 43.3145,125.8402 C43.0685,125.4722 42.6115,124.7862 42.6115,123.6362 C42.6115,122.7562 42.8005,122.2262 42.9945,121.7572 C43.0815,121.5502 43.0885,121.5322 43.0885,121.3372 C43.0885,120.7212 43.1015,120.4132 43.1145,120.1052 C43.1255,119.8372 43.1375,119.5692 43.1375,119.0352 C43.1375,118.5482 43.1145,118.3042 43.0925,118.0612 C43.0625,117.7292 43.0315,117.3992 43.0315,116.7362 C43.0315,116.2222 43.0155,115.9642 42.9985,115.7062 C42.9785,115.3892 42.9585,115.0702 42.9585,114.4352 C42.9585,114.2642 42.9585,114.2642 42.8665,114.0572 C42.6545,113.5792 42.4465,113.0372 42.4465,112.1342 C42.4465,111.0532 42.8095,110.4182 43.0265,110.0382 C43.0535,109.9912 43.0845,109.9452 43.1065,109.8922 C43.1045,109.3862 43.0785,109.1982 43.0435,108.9402 C42.9995,108.6262 42.9465,108.2362 42.9465,107.5302 C42.9465,106.8372 42.9935,106.4532 43.0315,106.1462 C43.0635,105.8892 43.0885,105.6862 43.0885,105.2282 C43.0885,105.1012 43.0885,105.1012 43.0015,104.9262 C42.8195,104.5612 42.5135,103.9492 42.5135,102.9242 C42.5135,102.3902 42.5025,102.1222 42.4915,101.8562 C42.4785,101.5482 42.4655,101.2402 42.4655,100.6262 C42.4655,99.5352 42.8395,98.8962 43.0625,98.5142 C43.0895,98.4682 43.1205,98.4232 43.1435,98.3692 C43.1385,97.6872 43.1595,97.3672 43.1805,97.0472 C43.1975,96.7912 43.2145,96.5342 43.2145,96.0202 C43.2145,95.5162 43.1945,95.2642 43.1755,95.0122 C43.1525,94.6882 43.1275,94.3632 43.1275,93.7162 C43.1275,92.9892 43.1915,92.5882 43.2415,92.2662 C43.2815,92.0172 43.3095,91.8372 43.3095,91.4112 C43.2975,91.3512 43.2665,91.3062 43.2375,91.2602 C42.9965,90.8712 42.5935,90.2222 42.5935,89.1032 C42.5935,88.2332 42.7735,87.7082 42.9575,87.2442 C43.0415,87.0332 43.0525,87.0062 43.0525,86.7942 C43.0525,85.7422 43.9045,84.8912 44.9555,84.8912 C46.0065,84.8912 46.8585,85.7422 46.8585,86.7942 C46.8585,87.6622 46.6785,88.1882 46.4945,88.6512 C46.4105,88.8622 46.3995,88.8902 46.3995,89.1032 C46.4115,89.1622 46.4425,89.2072 46.4715,89.2532 C46.7125,89.6422 47.1155,90.2912 47.1155,91.4112 C47.1155,92.1372 47.0525,92.5382 47.0015,92.8612 C46.9615,93.1102 46.9335,93.2892 46.9335,93.7162 C46.9335,94.2212 46.9525,94.4732 46.9715,94.7252 C46.9955,95.0492 47.0205,95.3732 47.0205,96.0202 C47.0205,96.6582 46.9995,96.9782 46.9785,97.2972 C46.9615,97.5542 46.9445,97.8112 46.9445,98.3242 C46.9445,99.4152 46.5705,100.0542 46.3475,100.4362 C46.3205,100.4832 46.2895,100.5282 46.2665,100.5812 C46.2715,101.1602 46.2825,101.4282 46.2945,101.6952 C46.3075,102.0032 46.3195,102.3102 46.3195,102.9242 C46.3195,103.0522 46.3195,103.0522 46.4075,103.2272 C46.5895,103.5922 46.8945,104.2032 46.8945,105.2282 C46.8945,105.9202 46.8475,106.3042 46.8095,106.6122 C46.7775,106.8692 46.7525,107.0712 46.7525,107.5302 C46.7525,107.9762 46.7785,108.1622 46.8145,108.4222 C46.8575,108.7362 46.9105,109.1262 46.9105,109.8312 C46.9105,110.9122 46.5475,111.5482 46.3305,111.9272 C46.3035,111.9752 46.2735,112.0202 46.2505,112.0742 C46.2525,112.3052 46.2525,112.3052 46.3445,112.5112 C46.5565,112.9882 46.7645,113.5302 46.7645,114.4352 C46.7645,114.9492 46.7805,115.2072 46.7975,115.4642 C46.8175,115.7822 46.8375,116.1002 46.8375,116.7362 C46.8375,117.2242 46.8605,117.4682 46.8825,117.7112 C46.9125,118.0422 46.9435,118.3732 46.9435,119.0352 C46.9435,119.6522 46.9305,119.9592 46.9175,120.2682 C46.9055,120.5352 46.8945,120.8022 46.8945,121.3372 C46.8945,122.2172 46.7045,122.7472 46.5105,123.2152 C46.4245,123.4232 46.4175,123.4412 46.4175,123.6362 C46.4185,123.6412 46.4515,123.6842 46.4805,123.7292 C46.7265,124.0972 47.1835,124.7822 47.1835,125.9342 C47.1835,126.8442 46.9705,127.3892 46.7525,127.8692 C46.6615,128.0692 46.6615,128.0692 46.6615,128.2332 C46.6615,128.7052 46.6875,128.9412 46.7125,129.1772 C46.7475,129.4942 46.7865,129.8552 46.7865,130.5322 C46.7865,131.3492 46.6655,131.8162 46.5775,132.1562 C46.5195,132.3832 46.4895,132.4962 46.4895,132.8292 C46.4895,133.1092 46.5135,133.1822 46.5835,133.4012 C46.7255,133.8512 46.8545,134.3212 46.8545,135.1232 C46.8545,135.9212 46.7285,136.3902 46.5895,136.8382 C46.5195,137.0612 46.4965,137.1362 46.4965,137.4202 C46.4965,138.0772 46.4675,138.4052 46.4395,138.7352 C46.4185,138.9812 46.3965,139.2282 46.3965,139.7212 C46.3965,140.3662 46.3725,140.6902 46.3485,141.0122 C46.3305,141.2542 46.3125,141.4962 46.3105,141.9602 C46.3275,141.9822 46.3445,142.0032 46.3615,142.0262 C46.6455,142.4032 47.1765,143.1092 47.1765,144.3192 C47.1765,145.2282 46.9655,145.7732 46.7485,146.2522 C46.6575,146.4542 46.6575,146.4542 46.6575,146.6202 C46.6575,147.0412 46.6865,147.2192 46.7265,147.4652 C46.7785,147.7882 46.8435,148.1922 46.8435,148.9192 C46.8435,149.7082 46.7235,150.1722 46.5905,150.6162 C46.5235,150.8392 46.4985,150.9232 46.4985,151.2182 C46.4985,151.5052 46.5235,151.5872 46.5915,151.8052 C46.7295,152.2522 46.8545,152.7202 46.8545,153.5172 C46.8545,153.8612 46.8825,153.9782 46.9405,154.2122 C47.0235,154.5492 47.1375,155.0112 47.1375,155.8182 C47.1375,156.6782 46.9625,157.1982 46.7835,157.6572 C46.7015,157.8672 46.6895,157.9002 46.6895,158.1162 C46.6895,158.4862 46.7185,158.6172 46.7715,158.8592 C46.8425,159.1862 46.9405,159.6342 46.9405,160.4142 C46.9405,161.0512 46.9205,161.3682 46.8995,161.6862 C46.8825,161.9442 46.8665,162.1992 46.8665,162.7122 C46.8665,163.1522 46.8925,163.3352 46.9305,163.5912 C46.9755,163.9072 47.0325,164.3012 47.0325,165.0122 C47.0325,165.7612 46.9565,166.1752 46.8945,166.5082 C46.8495,166.7502 46.8195,166.9112 46.8195,167.3122 C46.8195,168.0902 46.7065,168.5492 46.5795,168.9882 C46.5155,169.2122 46.4885,169.3042 46.4885,169.6102 C46.4885,170.2462 46.4675,170.5642 46.4475,170.8822 C46.4305,171.1392 46.4135,171.3952 46.4135,171.9062 C46.4135,172.4712 46.4175,172.7522 46.4205,173.0332 C46.4235,173.3262 46.4275,173.6192 46.4275,174.2042 C46.4275,174.8752 46.3915,175.2322 46.3595,175.5462 C46.3355,175.7842 46.3105,176.0242 46.3105,176.5022 C46.3105,176.9882 46.3335,177.2332 46.3555,177.4762 C46.3865,177.8072 46.4175,178.1392 46.4175,178.8012 C46.4175,179.0662 46.4395,179.1312 46.5115,179.3472 C46.6275,179.6932 46.8035,180.2162 46.8035,181.1012 C46.8035,181.5522 46.8295,181.7512 46.8625,182.0042 C46.9025,182.3142 46.9525,182.7002 46.9525,183.3992 C46.9525,184.0032 46.9435,184.3062 46.9335,184.6092 C46.9245,184.8802 46.9155,185.1522 46.9155,185.6942 C46.9155,186.3152 46.9015,186.6252 46.8855,186.9352 C46.8735,187.1992 46.8605,187.4632 46.8605,187.9902 C46.8605,188.9062 46.6605,189.4442 46.5285,189.8012 C46.4505,190.0112 46.4335,190.0552 46.4335,190.2872 C46.4335,190.6992 46.4625,190.8642 46.5055,191.1132 C46.5615,191.4422 46.6325,191.8492 46.6325,192.5872 C46.6325,192.7362 46.6325,192.7362 46.7205,192.9252 C46.8905,193.2832 47.1745,193.8852 47.1745,194.8862 C47.1745,195.6742 47.0555,196.1382 46.9225,196.5812 C46.8555,196.8042 46.8305,196.8872 46.8305,197.1822 C46.8305,197.9072 46.7665,198.3082 46.7145,198.6312 C46.6745,198.8772 46.6465,199.0552 46.6465,199.4782 C46.6465,199.7522 46.6705,199.8252 46.7395,200.0412 C46.8495,200.3832 47.0165,200.9002 47.0165,201.7732 C47.0165,202.6562 46.8405,203.1792 46.7245,203.5242 C46.6535,203.7382 46.6315,203.8032 46.6315,204.0652 C46.6315,204.6992 46.6105,205.0162 46.5905,205.3332 C46.5735,205.5882 46.5565,205.8432 46.5565,206.3542 C46.5565,206.7102 46.5865,206.8392 46.6405,207.0712 C46.7175,207.4032 46.8225,207.8572 46.8225,208.6492 C46.8225,209.5232 46.6365,210.0502 46.4465,210.5152 C46.3615,210.7252 46.3545,210.7412 46.3545,210.9422 C46.3545,211.1072 46.3545,211.1072 46.4445,211.3092 C46.6585,211.7872 46.8675,212.3292 46.8675,213.2342 C46.8675,214.0552 46.7425,214.5262 46.6525,214.8682 C46.5915,215.0972 46.5635,215.2012 46.5635,215.5272 C46.5635,216.0692 46.5715,216.3422 46.5805,216.6122 C46.5905,216.9142 46.5995,217.2152 46.5995,217.8192 C46.5995,218.6422 46.4725,219.1132 46.3805,219.4572 C46.3195,219.6852 46.2915,219.7882 46.2915,220.1112 C46.3015,220.1622 46.3325,220.2062 46.3605,220.2512 C46.6015,220.6382 47.0035,221.2842 47.0035,222.4012 C47.0035,222.9902 46.9985,223.2852 46.9925,223.5812 C46.9885,223.8602 46.9835,224.1372 46.9835,224.6942 C46.9835,225.3212 46.9645,225.6352 46.9455,225.9502 C46.9315,226.2082 46.9155,226.4662 46.9155,226.9832 C46.9155,227.6502 46.8805,228.0032 46.8495,228.3162 C46.8255,228.5552 46.8015,228.7932 46.8015,229.2712 C46.8015,229.6692 46.8315,229.8282 46.8765,230.0702 C46.9375,230.4022 47.0135,230.8152 47.0135,231.5622 C47.0135,232.6842 46.6055,233.3332 46.3605,233.7212 C46.3325,233.7662 46.3005,233.8102 46.2765,233.8612 C46.2925,234.0112 46.2925,234.0112 46.3825,234.2072 C46.6005,234.6872 46.8135,235.2312 46.8135,236.1392 C46.8135,237.0532 46.6135,237.5902 46.4815,237.9452 C46.4025,238.1572 46.3875,238.1952 46.3875,238.4252 C46.3875,238.4952 46.3945,238.5242 46.3945,238.5252 C46.4125,238.5692 46.4425,238.6142 46.4675,238.6632 C46.6695,239.0352 47.0075,239.6582 47.0075,240.7122 C47.0075,241.4872 46.9115,241.9342 46.8415,242.2592 C46.7905,242.4922 46.7605,242.6342 46.7605,243.0042 C46.7605,243.6002 46.7535,243.8992 46.7455,244.1962 C46.7395,244.4712 46.7325,244.7452 46.7325,245.2942 C46.7325,245.6582 46.7605,245.7902 46.8145,246.0282 C46.8865,246.3562 46.9855,246.8042 46.9855,247.5842 C46.9855,248.6932 46.5915,249.3372 46.3555,249.7222 C46.3275,249.7682 46.2975,249.8122 46.2735,249.8632 C46.2855,250.0602 46.2885,250.0682 46.3765,250.2762 C46.5765,250.7462 46.7725,251.2792 46.7725,252.1662 C46.7725,252.8142 46.7475,253.1382 46.7205,253.4612 C46.7015,253.7102 46.6815,253.9582 46.6815,254.4552 C46.6815,255.2312 46.5695,255.6862 46.4445,256.1232 C46.3815,256.3472 46.3545,256.4402 46.3545,256.7452 C46.3545,257.1912 46.3795,257.3782 46.4145,257.6372 C46.4565,257.9482 46.5085,258.3362 46.5085,259.0362 C46.5085,259.7392 46.4545,260.1292 46.4125,260.4422 C46.3775,260.6942 46.3515,260.8772 46.3505,261.3002 C46.3695,261.3262 46.3885,261.3532 46.4075,261.3792 C46.6675,261.7512 47.1525,262.4432 47.1525,263.6152 C47.1525,264.4032 47.0485,264.8562 46.9725,265.1862 C46.9195,265.4192 46.8895,265.5482 46.8895,265.9042 C46.8895,266.6942 46.7845,267.1482 46.7075,267.4802 C46.6535,267.7112 46.6245,267.8392 46.6245,268.1942 C46.6245,268.4772 46.6475,268.5512 46.7165,268.7722 C46.8565,269.2192 46.9825,269.6882 46.9825,270.4852 C46.9825,271.1542 46.9455,271.5102 46.9135,271.8232 C46.8895,272.0622 46.8645,272.2992 46.8645,272.7742 C46.8645,273.5712 46.7385,274.0392 46.5975,274.4882 C46.5285,274.7082 46.5055,274.7812 46.5055,275.0632 C46.5205,275.1442 46.5505,275.1892 46.5785,275.2352 C46.8055,275.6162 47.1855,276.2552 47.1855,277.3502 C47.1855,278.5222 46.7005,279.2142 46.4415,279.5852 C46.4255,279.6082 46.4095,279.6292 46.3945,279.6522 C46.4055,279.6842 46.4285,279.7152 46.4495,279.7472 C46.6875,280.1122 47.1295,280.7922 47.1295,281.9292 C47.1295,282.4482 47.1435,282.7082 47.1585,282.9682 C47.1755,283.2802 47.1935,283.5942 47.1935,284.2192 C47.1935,284.9752 47.1115,285.3922 47.0465,285.7272 C46.9995,285.9712 46.9705,286.1192 46.9705,286.5072 C46.9705,287.5032 46.6905,288.1022 46.5225,288.4592 C46.4345,288.6472 46.4345,288.6472 46.4345,288.7952 L46.4375,291.0822 C46.4375,291.2872 46.4455,291.3092 46.5295,291.5192 C46.7145,291.9802 46.8945,292.5032 46.8945,293.3692 C46.8945,294.1212 46.8155,294.5372 46.7515,294.8712 C46.7035,295.1172 46.6755,295.2662 46.6755,295.6562 C46.6755,296.4392 46.5595,296.8992 46.4295,297.3392 C46.3635,297.5642 46.3385,297.6482 46.3385,297.9452 C46.3385,298.3982 46.3645,298.5972 46.3965,298.8502 C46.4355,299.1582 46.4855,299.5432 46.4855,300.2362 C46.4855,300.8002 46.4875,301.0802 46.4905,301.3622 C46.4935,301.6532 46.4965,301.9442 46.4965,302.5262 C46.4965,303.1852 46.4655,303.5152 46.4345,303.8452 C46.4125,304.0872 46.3895,304.3282 46.3895,304.8122 C46.3895,305.8632 45.5375,306.7152 44.4865,306.7152" id="Fill-124" fill="#000"/></g></g></g></g><g id="Upper Body" transform="translate(-1.000000, 0.000000) scale(1 1)"><defs><path d="M89.959,0.032 L41.63,0.032 C41.63,0.032 1.724,-1.493 1.724,44.176 L1.724,44.176 C1.724,83.335 -0.267,114.232 0.62,164.778 L0.62,164.778 L79.151,164.778 C77.99,167.178 71.285,182.551 83.309,195.594 L83.309,195.594 L141.835,195.594 C139.619,53.045 134.984,32.439 134.984,32.439 L134.984,32.439 L134.98,32.44 C130.779,1.854 99.215,-0.004 91.606,-0.004 L91.606,-0.004 C90.553,-0.004 89.959,0.032 89.959,0.032" id="upper-bodypointing-path-1"/><path d="M89.959,0.032 L41.63,0.032 C41.63,0.032 1.724,-1.493 1.724,44.176 L1.724,44.176 C1.724,83.335 -0.267,114.232 0.62,164.778 L0.62,164.778 L79.151,164.778 C77.99,167.178 71.285,182.551 83.309,195.594 L83.309,195.594 L141.835,195.594 C139.619,53.045 134.984,32.439 134.984,32.439 L134.984,32.439 L134.98,32.44 C130.779,1.854 99.215,-0.004 91.606,-0.004 L91.606,-0.004 C90.553,-0.004 89.959,0.032 89.959,0.032" id="upper-bodypointing-path-3"/><path d="M89.959,0.032 L41.63,0.032 C41.63,0.032 1.724,-1.493 1.724,44.176 L1.724,44.176 C1.724,83.335 -0.267,114.232 0.62,164.778 L0.62,164.778 L79.151,164.778 C77.99,167.178 71.285,182.551 83.309,195.594 L83.309,195.594 L141.835,195.594 C139.619,53.045 134.984,32.439 134.984,32.439 L134.984,32.439 L134.98,32.44 C130.779,1.854 99.215,-0.004 91.606,-0.004 L91.606,-0.004 C90.553,-0.004 89.959,0.032 89.959,0.032" id="upper-bodypointing-path-5"/><path d="M89.959,0.032 L41.63,0.032 C41.63,0.032 1.724,-1.493 1.724,44.176 L1.724,44.176 C1.724,83.335 -0.267,114.232 0.62,164.778 L0.62,164.778 L79.151,164.778 C77.99,167.178 71.285,182.551 83.309,195.594 L83.309,195.594 L141.835,195.594 C139.619,53.045 134.984,32.439 134.984,32.439 L134.984,32.439 L134.98,32.44 C130.779,1.854 99.215,-0.004 91.606,-0.004 L91.606,-0.004 C90.553,-0.004 89.959,0.032 89.959,0.032" id="upper-bodypointing-path-7"/><path d="M89.959,0.032 L41.63,0.032 C41.63,0.032 1.724,-1.493 1.724,44.176 L1.724,44.176 C1.724,83.335 -0.267,114.232 0.62,164.778 L0.62,164.778 L79.151,164.778 C77.99,167.178 71.285,182.551 83.309,195.594 L83.309,195.594 L141.835,195.594 C139.619,53.045 134.984,32.439 134.984,32.439 L134.984,32.439 L134.98,32.44 C130.779,1.854 99.215,-0.004 91.606,-0.004 L91.606,-0.004 C90.553,-0.004 89.959,0.032 89.959,0.032" id="upper-bodypointing-path-9"/><path d="M89.959,0.032 L41.63,0.032 C41.63,0.032 1.724,-1.493 1.724,44.176 L1.724,44.176 C1.724,83.335 -0.267,114.232 0.62,164.778 L0.62,164.778 L79.151,164.778 C77.99,167.178 71.285,182.551 83.309,195.594 L83.309,195.594 L141.835,195.594 C139.619,53.045 134.984,32.439 134.984,32.439 L134.984,32.439 L134.98,32.44 C130.779,1.854 99.215,-0.004 91.606,-0.004 L91.606,-0.004 C90.553,-0.004 89.959,0.032 89.959,0.032" id="upper-bodypointing-path-11"/><path d="M89.959,0.032 L41.63,0.032 C41.63,0.032 1.724,-1.493 1.724,44.176 L1.724,44.176 C1.724,83.335 -0.267,114.232 0.62,164.778 L0.62,164.778 L79.151,164.778 C77.99,167.178 71.285,182.551 83.309,195.594 L83.309,195.594 L141.835,195.594 C139.619,53.045 134.984,32.439 134.984,32.439 L134.984,32.439 L134.98,32.44 C130.779,1.854 99.215,-0.004 91.606,-0.004 L91.606,-0.004 C90.553,-0.004 89.959,0.032 89.959,0.032" id="upper-bodypointing-path-13"/></defs><g id="Upper Body/Pointing" stroke="none" stroke-width="1" fill="none" fill-rule="evenodd"><g id="Group-691" transform="translate(252.500000, 272.500000)"><g id="Group" transform="translate(0.000000, 0.095000)"><g id="Group-193" transform="translate(0.000000, 22.000000)"><path d="M199.8096,67.9156 L198.2366,15.7806 L227.9056,4.4276 C227.9056,4.4276 248.2146,-3.4924 250.9376,1.8716 C254.7286,9.3386 239.9456,14.1076 231.0066,17.6716 C227.7276,18.9776 235.7546,15.8536 239.1246,18.8466 C242.0666,21.4596 241.6276,27.9586 236.1816,29.2766 C236.1816,29.2766 241.6946,27.9966 243.4726,32.7016 C244.9656,36.6546 241.4526,40.7826 237.3236,41.7486 C237.3236,41.7486 241.3936,41.3246 243.5596,45.3506 C245.9206,49.7376 244.4796,55.8346 234.7776,58.3836 C234.7776,58.3836 214.8696,63.7436 199.8096,67.9156" id="Fill-185" fill="#ef9e89"/><path d="M129.9195,30.9489 L131.6895,96.8479 C152.7925,95.3159 151.8085,82.2869 151.8085,82.2869 C157.0545,89.6139 168.5645,88.3379 173.7445,83.9589 C178.8595,79.6359 178.7205,72.0159 178.7205,72.0159 C184.3675,83.4989 206.2375,78.0039 205.0735,64.5359 L198.2365,9.2109 L129.9195,30.9489 Z" id="Fill-187" fill="#DDF77D"/><path d="M83.3082,203.5934 C83.3082,203.5934 101.4342,230.9924 112.6642,246.1944 C120.7682,257.1644 124.4262,257.4614 126.7982,257.1644 C129.1702,256.8684 131.4432,252.9144 128.6762,248.3674 C128.6762,248.3674 131.4432,255.7804 135.2002,256.0774 C138.9552,256.3744 141.5252,253.7054 138.0662,246.0954 C138.0662,246.0954 140.6362,252.8164 144.8862,252.4204 C149.2212,252.0174 149.8322,246.6104 147.7522,243.4264 C147.7522,243.4264 150.8162,250.6414 156.1542,248.2694 C161.6212,245.8394 156.3512,232.9484 147.7522,221.7804 C147.7522,221.7804 155.7582,226.1294 160.5032,227.0184 C165.2472,227.9074 172.4622,223.8564 162.5782,216.7394 C152.6942,209.6224 135.4962,203.5934 135.4962,203.5934 L83.3082,203.5934 Z" id="Fill-189" fill="#ef9e89"/><path d="M141.8355,203.5934 L83.3085,203.5934 C71.2845,190.5514 77.9895,175.1784 79.1515,172.7784 L0.6195,172.7784 C-0.2675,122.2324 1.7245,91.3344 1.7245,52.1764 C1.7245,6.5074 41.6295,8.0314 41.6295,8.0314 L89.9595,8.0314 C89.9595,8.0314 130.1975,5.6234 134.9805,40.4404 L134.9835,40.4394 C134.9835,40.4394 139.6185,61.0444 141.8355,203.5934" id="Fill-191" fill="#FEF864"/></g><g id="Group-215" transform="translate(0.000000, 30.000000)"><g id="Group-196"><mask id="upper-bodypointing-mask-2" fill="#ffffff"><use xlink:href="#upper-bodypointing-path-1" fill="#ffffff"/></mask><g id="Clip-195"/><path d="M214.0025,6.3893 C206.8445,8.8113 199.4645,8.9573 191.9815,9.1603 C183.7385,9.3833 175.4925,9.5233 167.2455,9.6033 C150.7465,9.7633 134.2455,9.6843 117.7465,9.5543 C84.4325,9.2933 51.1095,8.8213 17.7995,9.6883 C-0.9815,10.1773 -19.7485,11.1183 -38.4705,12.7103 C-44.8355,13.2523 -44.8935,23.2573 -38.4705,22.7103 C28.6535,16.9973 96.0265,20.1403 163.2875,19.6373 C172.5235,19.5683 181.7595,19.4283 190.9925,19.1873 C199.6385,18.9603 208.3885,18.8313 216.6615,16.0333 C222.7245,13.9813 220.1225,4.3193 214.0025,6.3893" id="Fill-194" fill="#DDF77D" mask="url(#upper-bodypointing-mask-2)"/></g><g id="Group-199"><mask id="upper-bodypointing-mask-4" fill="#ffffff"><use xlink:href="#upper-bodypointing-path-3" fill="#ffffff"/></mask><g id="Clip-198"/><path d="M223.608,44.8258 C138.811,41.9878 53.976,40.3598 -30.868,39.9417234 C-37.304,39.9098 -37.312,49.9098 -30.868,49.9418 C53.976,50.3598 138.811,51.9878 223.608,54.8258 C230.045,55.0418 230.037,45.0418 223.608,44.8258" id="Fill-197" fill="#DDF77D" mask="url(#upper-bodypointing-mask-4)"/></g><g id="Group-202"><mask id="upper-bodypointing-mask-6" fill="#ffffff"><use xlink:href="#upper-bodypointing-path-5" fill="#ffffff"/></mask><g id="Clip-201"/><path d="M235.1622,72.5230909 C164.5482,72.6451 93.9342,72.7671 23.3202,72.8891 C3.3352,72.9231 -16.6498,72.9591 -36.6348,72.9931 C-43.0688,73.0031 -43.0808,83.0031 -36.6348,82.9931075 L175.2062,82.6271 C195.1922,82.5921 215.1772,82.5571 235.1622,82.5230909 C241.5962,82.5121 241.6072,72.5121 235.1622,72.5230909" id="Fill-200" fill="#DDF77D" mask="url(#upper-bodypointing-mask-6)"/></g><g id="Group-205"><mask id="upper-bodypointing-mask-8" fill="#ffffff"><use xlink:href="#upper-bodypointing-path-7" fill="#ffffff"/></mask><g id="Clip-204"/><path d="M203.6812,98.192 C126.3842,98.143 49.0862,98.094 -28.2108,98.0459988 C-34.6458,98.042 -34.6558,108.042 -28.2108,108.045999 C49.0862,108.094 126.3842,108.143 203.6812,108.192002 C210.1162,108.197 210.1262,98.197 203.6812,98.192" id="Fill-203" fill="#DDF77D" mask="url(#upper-bodypointing-mask-8)"/></g><g id="Group-208"><mask id="upper-bodypointing-mask-10" fill="#ffffff"><use xlink:href="#upper-bodypointing-path-9" fill="#ffffff"/></mask><g id="Clip-207"/><path d="M240.0357,119.3531 C173.4127,122.3031 106.7377,124.0141 40.0507,124.4461 C21.1397,124.5681 2.2277,124.5851 -16.6833,124.5071 C-23.1193,124.4811 -23.1273,134.4811 -16.6833,134.5071 C50.0037,134.7821 116.6947,133.8141 183.3457,131.5691 C202.2457,130.9321 221.1427,130.1901 240.0357,129.3531 C246.4457,129.0691 246.4807,119.0671 240.0357,119.3531" id="Fill-206" fill="#DDF77D" mask="url(#upper-bodypointing-mask-10)"/></g><g id="Group-211"><mask id="upper-bodypointing-mask-12" fill="#ffffff"><use xlink:href="#upper-bodypointing-path-11" fill="#ffffff"/></mask><g id="Clip-210"/><path d="M279.4898,155.6862 C197.9048,157.3182 116.2838,157.0262 34.7138,154.7662 C11.5028,154.1232 -11.7032,153.3172 -34.9032,152.3622 C-41.3382,152.0972 -41.3262,162.0982 -34.9032,162.3622 C46.6288,165.7182 128.2378,167.1532 209.8378,166.6182 C233.0568,166.4652 256.2748,166.1502 279.4898,165.6862 C285.9158,165.5572 285.9378,155.5572 279.4898,155.6862" id="Fill-209" fill="#DDF77D" mask="url(#upper-bodypointing-mask-12)"/></g><g id="Group-214"><mask id="upper-bodypointing-mask-14" fill="#ffffff"><use xlink:href="#upper-bodypointing-path-13" fill="#ffffff"/></mask><g id="Clip-213"/><path d="M256.4542,189.3678 C180.3432,188.0258 104.2222,187.2968 28.0992,187.179793 C21.6642,187.1698 21.6542,197.1698 28.0992,197.179793 C104.2222,197.2968 180.3432,198.0258 256.4542,199.3678 C262.8912,199.4808 262.8922,189.4808 256.4542,189.3678" id="Fill-212" fill="#DDF77D" mask="url(#upper-bodypointing-mask-14)"/></g></g><g id="Group-238" transform="translate(51.000000, 0.000000)"><path d="M78.3375,278.6305 C78.1785,278.6305 78.0175,278.6055 77.8585,278.5515 C77.0735,278.2875 76.6515,277.4365 76.9155,276.6515 C78.1395,273.0155 72.2045,263.4595 67.8715,256.4825 C66.6645,254.5375 65.5245,252.7025 64.5675,251.0585 C64.1505,250.3425 64.3945,249.4235 65.1095,249.0075 C65.8265,248.5895 66.7445,248.8335 67.1605,249.5495 C68.0955,251.1555 69.2245,252.9745 70.4205,254.8995 C75.5825,263.2115 81.4335,272.6325 79.7595,277.6085 C79.5485,278.2345 78.9635,278.6305 78.3375,278.6305" id="Fill-216" fill="#000"/><path d="M88.48,277.1578 C88.338,277.1578 88.193,277.1368 88.05,277.0948 C87.256,276.8568 86.805,276.0208 87.043,275.2278 C88.444,270.5408 81.053,258.0968 77.501,252.1168 C76.841,251.0058 76.266,250.0368 75.828,249.2638 C75.419,248.5448 75.671,247.6288 76.392,247.2198 C77.113,246.8118 78.028,247.0628 78.437,247.7838 C78.867,248.5428 79.432,249.4928 80.081,250.5848 C85.7,260.0458 91.558,270.5988 89.917,276.0878 C89.722,276.7378 89.126,277.1578 88.48,277.1578" id="Fill-218" fill="#000"/><path d="M97.3511,273.5309 C97.2361,273.5309 97.1201,273.5169 97.0041,273.4899 C96.1981,273.2989 95.6991,272.4909 95.8901,271.6839 C97.2251,266.0459 91.7041,256.7249 88.4041,251.1569 C87.6881,249.9479 87.0701,248.9029 86.6091,248.0519 C86.2161,247.3219 86.4871,246.4119 87.2161,246.0179 C87.9461,245.6239 88.8551,245.8959 89.2491,246.6259 C89.6811,247.4259 90.2861,248.4459 90.9851,249.6279 C94.7441,255.9709 100.4231,265.5579 98.8091,272.3759 C98.6461,273.0659 98.0301,273.5309 97.3511,273.5309" id="Fill-220" fill="#000"/><path d="M166.1085,45.025 C165.4105,45.025 164.7865,44.536 164.6405,43.826 C164.4745,43.014 164.9975,42.221 165.8085,42.055 C165.9965,42.016 184.7445,38.092 197.9855,28.84 C198.6665,28.367 199.6015,28.532 200.0745,29.211 C200.5495,29.889 200.3835,30.825 199.7045,31.299 C185.9445,40.914 167.2025,44.832 166.4115,44.994 C166.3095,45.014 166.2085,45.025 166.1085,45.025" id="Fill-222" fill="#000"/><path d="M167.0235,63.7936 L166.9945,63.7936 C159.0995,63.7566 154.4775,52.9786 154.2845,52.5196 C153.9635,51.7556 154.3225,50.8776 155.0855,50.5566 C155.8505,50.2336 156.7275,50.5936 157.0495,51.3556 C157.0895,51.4496 161.0945,60.7666 167.0075,60.7936 C167.9215,60.7676 168.5495,60.4566 168.9605,59.6886 C170.3165,57.1516 169.1565,50.7266 164.8665,44.3626 C164.4025,43.6756 164.5845,42.7436 165.2715,42.2806 C165.9585,41.8176 166.8915,41.9996 167.3535,42.6866 C171.9835,49.5536 173.7325,57.1266 171.6065,61.1036 C170.6775,62.8386 169.0515,63.7936 167.0235,63.7936" id="Fill-224" fill="#000"/><path d="M170.8287,55.7643 C170.0787,55.7643 169.4297,55.2023 169.3407,54.4373 C169.2457,53.6153 169.8347,52.8693 170.6567,52.7743 C170.7707,52.7613 182.0537,51.4113 187.7767,47.9373 C188.4857,47.5083 189.4077,47.7333 189.8377,48.4413 C190.2667,49.1493 190.0417,50.0713 189.3337,50.5013 C183.0487,54.3173 171.4927,55.6973 171.0037,55.7533 C170.9447,55.7603 170.8867,55.7643 170.8287,55.7643" id="Fill-226" fill="#000"/><path d="M174.3868,67.2262 C173.9268,67.2262 173.4608,67.2152 172.9888,67.1942 C168.1668,66.9712 166.9538,63.9232 166.9858,62.3422 C167.0028,61.5142 167.6858,60.8602 168.5158,60.8722 C169.3438,60.8892 170.0018,61.5752 169.9848,62.4032 C169.9968,62.6452 170.2008,64.0622 173.1278,64.1972 C183.1518,64.6752 190.4428,59.3142 190.5148,59.2602 C191.1788,58.7662 192.1178,58.9022 192.6138,59.5642 C193.1098,60.2262 192.9758,61.1642 192.3138,61.6612 C191.9988,61.8982 184.7718,67.2262 174.3868,67.2262" id="Fill-228" fill="#000"/><path d="M176.4385,77.3473 C172.9465,77.3473 169.5375,76.4533 168.2815,73.3323 C166.2985,68.4043 170.1625,65.2763 172.4815,64.3113 C173.2445,63.9913 174.1245,64.3543 174.4425,65.1193 C174.7605,65.8823 174.4015,66.7573 173.6415,67.0773 C173.2355,67.2513 169.7185,68.8683 171.0645,72.2123 C172.2255,75.0963 178.4385,74.6263 183.4045,73.3493 C184.2055,73.1443 185.0245,73.6263 185.2305,74.4283 C185.4375,75.2313 184.9535,76.0483 184.1515,76.2543 C182.3295,76.7233 179.3555,77.3473 176.4385,77.3473" id="Fill-230" fill="#000"/><path d="M18.5347,178.316 C18.4667,178.316 18.3977,178.312 18.3287,178.302 C17.5087,178.19 16.9337,177.433 17.0467,176.613 C17.1347,175.973 17.3517,175.443 17.5437,174.975 C17.6507,174.714 17.7517,174.468 17.7977,174.273 L17.8677,173.97 C18.0307,173.265 18.1837,172.6 18.4167,171.921 C18.6287,171.302 18.9037,170.769 19.1457,170.299 C19.2477,170.101 19.3487,169.905 19.4427,169.706 C19.5637,169.448 19.6577,169.184 19.7497,168.928 C19.9167,168.466 20.1057,167.944 20.4147,167.446 C20.7837,166.85 21.2587,166.443 21.6397,166.116 C21.8367,165.948 22.0227,165.789 22.1267,165.659 C22.2767,165.47 22.4107,165.218 22.5537,164.953 C22.7867,164.516 23.0517,164.021 23.4917,163.591 C24.1907,162.909 24.8037,162.374 25.3637,161.955 C25.5997,161.779 25.8237,161.644 26.0277,161.541 C25.8607,161.407 25.6717,161.241 25.4647,161.034 C25.3897,160.96 25.1357,160.812 24.9497,160.706 C24.4427,160.414 23.8117,160.05 23.2967,159.405 C22.8577,158.854 22.6817,158.237 22.5277,157.693 C22.4367,157.376 22.3517,157.076 22.2397,156.897 C22.1007,156.675 21.9397,156.464 21.7787,156.25 C21.4477,155.808 21.0717,155.307 20.7757,154.68 C20.6967,154.514 20.5217,154.291 20.3367,154.053 C19.9937,153.614 19.5667,153.067 19.3337,152.355 C19.1317,151.736 19.0767,151.108 19.0277,150.554 C19.0007,150.255 18.9767,149.953 18.9207,149.657 C18.7997,149.014 18.8297,148.399 18.8557,147.855 C18.8707,147.562 18.8877,147.263 18.8707,146.963 C18.8257,146.174 18.8437,145.402 18.9307,144.46 C18.9417,144.331 18.8757,144.038 18.8227,143.803 C18.6997,143.258 18.5457,142.582 18.7247,141.843 C18.8987,141.124 19.3017,140.578 19.6247,140.139 C19.7717,139.939 19.9387,139.713 19.9887,139.586 C20.0697,139.378 20.1257,139.103 20.1847,138.81 C20.2877,138.301 20.4047,137.724 20.7097,137.159 C20.8457,136.908 20.9507,136.635 21.0567,136.368 C21.2457,135.895 21.4587,135.359 21.7957,134.871 C22.2557,134.204 22.9237,133.848 23.4107,133.588 C23.5697,133.503 23.8097,133.376 23.8767,133.314 C24.3097,132.801 24.7587,132.39 25.1547,132.029 C25.3077,131.887 25.4557,131.753 25.5927,131.619 C25.6857,131.528 25.7747,131.446 25.8587,131.372 C25.6187,131.244 25.3667,131.071 25.1097,130.835 C24.5707,130.34 23.9387,129.737 23.3277,129.011 C22.9567,128.571 22.6937,128.082 22.4387,127.609 C22.3027,127.354 22.1627,127.092 22.0007,126.842 C21.6807,126.35 21.4747,125.838 21.2767,125.343 C21.1737,125.087 21.0697,124.824 20.9437,124.566 C20.8377,124.352 20.7127,124.141 20.5867,123.925 C20.3187,123.47 20.0157,122.954 19.7997,122.337 C19.5797,121.712 19.5867,121.092 19.5927,120.595 C19.5957,120.299 19.5987,120.021 19.5557,119.829 C19.3907,119.111 19.2677,118.368 19.1557,117.419 C19.0877,116.837 19.0957,116.288 19.1027,115.755 C19.1067,115.505 19.1107,115.251 19.1057,114.988 C19.1027,114.866 18.9507,114.53 18.8487,114.308 C18.5977,113.756 18.2857,113.07 18.3677,112.257 C18.4557,111.377 18.9307,110.702 19.2787,110.21 C19.3957,110.044 19.5737,109.792 19.6057,109.695 C19.8177,108.825 20.0867,108.013 20.4497,107.149 C20.5657,106.873 20.6517,106.595 20.7357,106.327 C20.9067,105.789 21.0987,105.178 21.4667,104.604 C21.6137,104.373 21.7427,104.087 21.8797,103.784 C22.1177,103.255 22.3877,102.656 22.8557,102.149 C23.4937,101.458 24.2967,101.188 24.8837,100.992 C25.0537,100.934 25.3087,100.848 25.3847,100.8 C25.6627,100.59 25.8857,100.44 26.0617,100.325 C25.8907,100.219 25.7027,100.089 25.4977,99.926 C25.4327,99.881 25.1847,99.787 25.0207,99.723 C24.5187,99.53 23.8307,99.264 23.2517,98.7 C22.6827,98.145 22.0907,97.503 21.5377,96.841 C21.3827,96.655 21.2067,96.471 21.0287,96.283 C20.6547,95.888 20.2307,95.44 19.8717,94.901 C19.5157,94.365 19.3457,93.791 19.1957,93.284 C19.1077,92.985 19.0247,92.704 18.9227,92.503 C18.6237,91.913 18.5337,91.325 18.4537,90.806 C18.4097,90.513 18.3677,90.237 18.2947,90.034 C18.2247,89.841 18.1017,89.611 17.9717,89.367 C17.7327,88.922 17.4367,88.369 17.2917,87.704 C17.2387,87.462 17.1517,87.22 17.0657,86.974 C16.8887,86.465 16.6887,85.888 16.6307,85.22 C16.5577,84.371 16.5367,83.508 16.5687,82.656 C16.5947,81.987 16.8197,81.426 17.0187,80.932 C17.1317,80.653 17.2387,80.388 17.2687,80.191 C17.3937,79.372 18.1617,78.81 18.9777,78.934 C19.7967,79.059 20.3597,79.825 20.2347,80.643 C20.1517,81.186 19.9657,81.647 19.8017,82.054 C19.6947,82.321 19.5727,82.623 19.5667,82.768 C19.5397,83.488 19.5577,84.247 19.6197,84.962 C19.6457,85.257 19.7687,85.614 19.8997,85.991 C20.0257,86.352 20.1447,86.71 20.2227,87.064 C20.2787,87.322 20.4347,87.613 20.6157,87.95 C20.7837,88.264 20.9737,88.62 21.1187,89.022 C21.2887,89.498 21.3587,89.952 21.4197,90.352 C21.4677,90.664 21.5157,90.985 21.5977,91.146 C21.8237,91.59 21.9557,92.038 22.0727,92.432 C22.1667,92.752 22.2637,93.081 22.3697,93.24 C22.5857,93.565 22.8877,93.882 23.2057,94.219 C23.4287,94.455 23.6457,94.685 23.8407,94.918 C24.3287,95.503 24.8487,96.067 25.3457,96.551 C25.4837,96.686 25.7977,96.807 26.1007,96.924 C26.5017,97.079 26.9577,97.254 27.3657,97.579 C27.6227,97.784 27.7947,97.862 27.9597,97.937 C29.2847,98.543 29.3077,99.531 29.1367,100.508 C28.9317,101.673 28.7737,102.138 27.8017,102.771 C27.6517,102.869 27.4517,103 27.1797,103.204 C26.7447,103.531 26.2627,103.693 25.8377,103.836 C25.5277,103.939 25.1777,104.057 25.0607,104.183 C24.9217,104.334 24.7657,104.68 24.6147,105.016 C24.4487,105.385 24.2597,105.803 23.9937,106.219 C23.8407,106.461 23.7267,106.817 23.5967,107.231 C23.4847,107.584 23.3677,107.947 23.2157,108.31 C22.9107,109.035 22.6967,109.684 22.5177,110.415 C22.3657,111.038 22.0137,111.538 21.7297,111.939 C21.5967,112.128 21.3737,112.444 21.3517,112.561 C21.3677,112.598 21.4947,112.879 21.5797,113.066 C21.8077,113.566 22.0907,114.188 22.1047,114.929 C22.1107,115.226 22.1067,115.515 22.1027,115.799 C22.0957,116.273 22.0897,116.682 22.1357,117.067 C22.2347,117.905 22.3407,118.551 22.4797,119.162 C22.6027,119.7 22.5967,120.215 22.5927,120.629 C22.5897,120.891 22.5857,121.217 22.6297,121.343 C22.7497,121.685 22.9557,122.036 23.1737,122.407 C23.3387,122.688 23.4997,122.965 23.6367,123.245 C23.7967,123.57 23.9307,123.902 24.0607,124.227 C24.2127,124.604 24.3557,124.961 24.5157,125.207 C24.7237,125.527 24.9057,125.861 25.0807,126.187 C25.2717,126.541 25.4517,126.876 25.6227,127.079 C26.1247,127.675 26.6707,128.195 27.1387,128.626 C27.2667,128.743 27.2787,128.744 27.4757,128.766 C28.9807,128.936 29.3377,130.01 29.3717,130.882 C29.4187,132.076 29.1407,132.684 28.2717,133.29 C28.1067,133.405 27.9347,133.524 27.6907,133.763 C27.5307,133.92 27.3587,134.078 27.1797,134.242 C26.8337,134.558 26.4757,134.885 26.1517,135.269 C25.7537,135.74 25.2367,136.014 24.8217,136.236 C24.6267,136.339 24.3327,136.497 24.2607,136.581 C24.1207,136.784 23.9867,137.122 23.8437,137.478 C23.7077,137.819 23.5547,138.206 23.3497,138.584 C23.2567,138.756 23.1927,139.072 23.1247,139.406 C23.0467,139.793 22.9577,140.23 22.7827,140.678 C22.5887,141.174 22.2967,141.57 22.0397,141.919 C21.8767,142.14 21.6727,142.417 21.6407,142.55 C21.6337,142.634 21.7027,142.939 21.7487,143.14 C21.8487,143.583 21.9727,144.133 21.9177,144.735 C21.8457,145.522 21.8287,146.157 21.8657,146.791 C21.8887,147.199 21.8717,147.603 21.8527,148.002 C21.8327,148.416 21.8137,148.806 21.8687,149.099 C21.9427,149.492 21.9807,149.894 22.0157,150.292 C22.0537,150.723 22.0897,151.13 22.1847,151.421 C22.2547,151.634 22.4717,151.913 22.7017,152.207 C22.9667,152.546 23.2657,152.93 23.4877,153.397 C23.6537,153.75 23.9087,154.089 24.1787,154.45 C24.3907,154.732 24.5977,155.01 24.7807,155.301 C25.1197,155.842 25.2827,156.414 25.4127,156.873 C25.4777,157.1 25.5757,157.443 25.6427,157.535 C25.8027,157.735 26.1157,157.915 26.4467,158.105 C26.8147,158.318 27.2327,158.558 27.5877,158.915 C27.8597,159.187 28.0497,159.315 28.2327,159.438 C29.1307,160.046 29.4267,160.662 29.4037,161.879 C29.3807,163.13 28.8417,163.84 27.7077,164.111 C27.5147,164.158 27.3877,164.188 27.1587,164.359 C26.7047,164.698 26.1907,165.149 25.5857,165.739 C25.4787,165.844 25.3367,166.11 25.1997,166.367 C25.0087,166.723 24.7927,167.128 24.4697,167.531 C24.1887,167.882 23.8717,168.154 23.5917,168.394 C23.3217,168.626 23.0887,168.826 22.9647,169.025 C22.8207,169.258 22.7047,169.578 22.5717,169.948 C22.4477,170.29 22.3197,170.638 22.1577,170.982 C22.0487,171.214 21.9307,171.443 21.8127,171.673 C21.5977,172.089 21.3957,172.483 21.2537,172.894 C21.0727,173.425 20.9357,174.018 20.7907,174.645 L20.7197,174.954 C20.6187,175.384 20.4597,175.772 20.3197,176.114 C20.1827,176.446 20.0547,176.759 20.0187,177.02 C19.9157,177.771 19.2727,178.316 18.5347,178.316" id="Fill-232" fill="#000"/><path d="M25.7535,0.9069 L14.3545,0.9069 C9.2005,0.9069 4.8145,4.6009 3.8985,9.6419 C3.8885,9.7049 3.8795,9.7649 3.8695,9.8289 L3.8645,9.8619 L3.8645,9.8629 C3.8275,10.1079 3.7895,10.3579 3.7515,10.6069 C2.4255,19.3479 0.7875,30.0589 0.7875,30.0589 L36.2205,30.0589 L36.2925,22.2939 L36.3905,11.6419 C36.4445,5.7289 31.6665,0.9069 25.7535,0.9069" id="Fill-234" fill="#ef9e89"/><path d="M36.2203,30.0592 C22.3453,29.0832 18.5543,26.1082 18.6883,23.6312 C18.8073,21.4132 20.8923,21.7222 21.8033,21.7432 C25.8173,21.8322 36.2923,22.2932 36.2923,22.2932" id="Fill-236" fill="#000"/></g></g></g></g></g><g id="Head" transform="translate(204.000000, 145.000000) scale(1 1)"><g id="Head/Short Slick" stroke="none" stroke-width="1" fill="none" fill-rule="evenodd"><g id="Group-183" transform="translate(95.000000, 78.000000)"><g id="Group-62" transform="translate(0.000000, 0.738000)"><path d="M57.5267,44.234 C56.6657,41.283 50.6257,39.08 47.5357,38.13 C46.2107,32.49 44.7797,27.428 43.4827,25.001 C40.7777,19.943 32.5307,14.629 19.3417,16.67 C10.5847,18.025 1.2587,26.194 7.3167,40.415 C7.3167,40.415 9.0487,43.862 8.2197,49.546 C8.1277,50.172 7.9977,51.047 7.8417,52.088 L7.8407,52.096 C7.5777,53.856 7.2367,56.113 6.8637,58.577 C6.8537,58.639 6.8447,58.7 6.8357,58.763 L6.8307,58.797 L6.8297,58.797 C6.7927,59.043 6.7557,59.293 6.7167,59.542 C6.4877,62.131 7.1937,70.607 26.2717,70.704 L39.2577,71.229 L39.4557,71.237 C39.4557,71.237 43.8067,71.189 46.4407,71.189 C51.9147,71.189 52.8547,65.97 52.2407,62.107 C51.9807,60.477 51.3877,56.696 50.0897,50.176 C53.6197,48.64 58.3127,46.927 57.5267,44.234" id="Fill-58" fill="#ef9e89"/><path d="M3.8353,23.2077 C3.8353,23.2077 0.5253,31.5227 0.8293,42.2757 L0.8043,42.2637 L0.8533,42.9437 C0.8913,43.8447 0.9573,44.7617 1.0503,45.6897 L2.2303,62.1197 C2.2303,62.1197 2.4493,66.5497 5.6143,66.8147 C8.7793,67.0817 11.2593,66.8147 11.2593,66.8147 C11.2593,66.8147 14.2053,66.6507 16.0223,62.9137 C17.8393,59.1767 19.6163,56.7467 20.3493,51.9917 C20.4383,51.5307 20.5213,51.0547 20.5953,50.5617 C20.7943,49.2537 19.6903,48.9517 18.7183,48.8857 C17.7463,48.8177 14.8973,47.5447 15.0313,43.8567 C15.1653,40.1697 17.4923,38.5267 20.6193,38.3257 C20.6193,38.3257 27.3983,38.6707 27.0423,29.7587 C27.0423,29.7587 56.5643,28.7557 59.6803,18.6277 C68.1483,-8.8903 12.8153,-3.9633 3.8353,23.2077" id="Fill-60" fill="#3164cf"/></g></g></g></g><g id="Expression" transform="translate(315.000000, 246.000000) scale(1 1)"><defs><path d="M2.973,1.055 C-0.453,2.37 -2.944,13.004 10.567,16.001 L10.567,16.001 C16.271,17.266 19.387,14.583 19.536,11.9 L19.536,11.9 C19.665,9.554 17.527,7.208 12.869,7.501 L12.869,7.501 C11.822,7.568 10.572,7.073 9.905,5.972 L9.905,5.972 C8.651,3.902 7.906,0.626 4.999,0.626 L4.999,0.626 C4.417,0.626 3.749,0.757 2.973,1.055" id="expressionlaugh-path-1"/></defs><g id="Expression/Laugh" stroke="none" stroke-width="1" fill="none" fill-rule="evenodd"><g id="Group-77" transform="translate(13.400000, 13.300000)"><g id="Group-3" transform="translate(0.000000, 0.116900)"><g id="Group" transform="translate(0.000000, 15.000000)"><path d="M2.973,1.0549 C-0.453,2.3699 -2.944,13.0039 10.567,15.9999 C21.261,18.3719 22.855,6.8709 12.869,7.5009 C11.822,7.5679 10.571,7.0739 9.904,5.9719 C8.4,3.4879 7.63,-0.7321 2.973,1.0549" id="Fill-37" fill="#000"/><g id="Group-41"><mask id="expressionlaugh-mask-2" fill="#ffffff"><use xlink:href="#expressionlaugh-path-1" fill="#ffffff"/></mask><g id="Clip-40"/><path d="M-3.2101,3.4943 C-3.2101,3.4943 1.3509,2.7393 5.4389,7.3023 C9.5279,11.8643 9.1349,18.8593 9.1349,18.8593 C9.1349,18.8593 -6.6571,11.2823 -3.2101,3.4943" id="Fill-39" fill="#FF71DB" mask="url(#expressionlaugh-mask-2)"/></g></g><g id="Group-46" transform="translate(3.000000, 0.000000)"><path d="M3.1312,6.052 C3.7892,6.555 4.7312,6.427 5.2332,5.769 C7.2772,3.086 9.8032,4.136 10.1002,4.271 C10.8412,4.624 11.7342,4.313 12.0932,3.571 C12.4552,2.825 12.1432,1.928 11.3982,1.566 C10.3642,1.065 8.4892,0.66 6.5312,1.268 C5.2702,1.659 3.9732,2.472 2.8462,3.95 C2.3442,4.61 2.4722,5.55 3.1312,6.052" id="Fill-42" fill="#000"/><path d="M4.6669,6.3596 C4.6669,7.0556 3.7149,7.6196 2.5399,7.6196 C1.3649,7.6196 0.4129,7.0556 0.4129,6.3596 C0.4129,5.6646 1.3649,5.0996 2.5399,5.0996 C3.7149,5.0996 4.6669,5.6646 4.6669,6.3596" id="Fill-44" fill="#F8FBF8"/></g></g></g></g></g><g id="Facial Hair" transform="translate(311.300000, 250.950000) scale(1 1)"><g id="Facial Hair/None" stroke="none" stroke-width="1" fill="none" fill-rule="evenodd" fill-opacity="0"/></g><g id="Accesories" transform="translate(311.300000, 250.950000) scale(1 1)"><g id="Accesories/None" stroke="none" stroke-width="1" fill="none" fill-rule="evenodd" fill-opacity="0"/></g></g></g></g></svg>