<svg viewBox="492.8125 149.3611111111111 532.2375000000001 550.2777777777778" fill="none" xmlns="http://www.w3.org/2000/svg" xmlns:xlink="http://www.w3.org/1999/xlink" overflow="visible" width="532.2375000000001px" height="550.2777777777778px"><g id="Master/Stickers/Clock 1"><g id="Clock 2"><g id="Clock"><path id="Fill 907" fill-rule="evenodd" clip-rule="evenodd" d="M1025.41 424.947C1025.41 571.572 906.754 690.437 760.379 690.437C614.006 690.437 495.346 571.572 495.346 424.947C495.346 278.32 614.006 159.457 760.379 159.457C906.754 159.457 1025.41 278.32 1025.41 424.947" fill="#B6CCFC"/><path id="Fill 909" fill-rule="evenodd" clip-rule="evenodd" d="M933.632 424.947C933.632 520.796 856.065 598.497 760.381 598.497C664.697 598.497 587.129 520.796 587.129 424.947C587.129 329.098 664.697 251.397 760.381 251.397C856.065 251.397 933.632 329.098 933.632 424.947" fill="#2E4C9E"/><path id="Path" opacity="0.275414" fill-rule="evenodd" clip-rule="evenodd" d="M872.539 184.332L524.814 546.732C515.816 529.303 508.689 510.747 503.699 491.331L820.58 166.336C838.681 170.547 856.071 176.616 872.539 184.332Z" fill="#F5F9FF"/><path id="Path_2" opacity="0.275414" fill-rule="evenodd" clip-rule="evenodd" d="M988.781 290.188L634.993 658.905C601.435 640.82 572.215 615.702 549.299 585.52L897.784 197.878C935.188 220.638 966.522 252.412 988.781 290.188Z" fill="#F5F9FF"/><path id="Fill 911" fill-rule="evenodd" clip-rule="evenodd" d="M824.754 428.245H760.38C758.527 428.245 757.025 426.739 757.025 424.885V333.108C757.025 331.251 758.527 329.745 760.38 329.745C762.233 329.745 763.735 331.251 763.735 333.108V421.522H824.754C826.607 421.522 828.109 423.028 828.109 424.885C828.109 426.739 826.607 428.245 824.754 428.245" fill="#21211D"/><path id="Fill 913" fill-rule="evenodd" clip-rule="evenodd" d="M768.689 294.287C768.689 289.689 764.968 285.962 760.381 285.962C755.791 285.962 752.072 289.689 752.072 294.287C752.072 298.882 755.791 302.61 760.381 302.61C764.968 302.61 768.689 298.882 768.689 294.287" fill="#21211D"/><path id="Fill 915" fill-rule="evenodd" clip-rule="evenodd" d="M768.689 554.096C768.689 549.499 764.968 545.773 760.381 545.773C755.791 545.773 752.072 549.499 752.072 554.096C752.072 558.693 755.791 562.419 760.381 562.419C764.968 562.419 768.689 558.693 768.689 554.096" fill="#21211D"/><path id="Fill 917" fill-rule="evenodd" clip-rule="evenodd" d="M890.061 432.515C894.65 432.515 898.371 428.789 898.371 424.192C898.371 419.594 894.65 415.869 890.061 415.869C885.471 415.869 881.752 419.594 881.752 424.192C881.752 428.789 885.471 432.515 890.061 432.515" fill="#21211D"/><path id="Fill 919" fill-rule="evenodd" clip-rule="evenodd" d="M630.697 432.515C635.287 432.515 639.006 428.789 639.006 424.192C639.006 419.594 635.287 415.869 630.697 415.869C626.108 415.869 622.387 419.594 622.387 424.192C622.387 428.789 626.108 432.515 630.697 432.515" fill="#21211D"/><path id="Fill 921" fill-rule="evenodd" clip-rule="evenodd" d="M857.954 338.22C861.198 334.968 861.198 329.699 857.954 326.447C854.707 323.199 849.447 323.199 846.201 326.447C842.957 329.699 842.957 334.968 846.201 338.22C849.447 341.472 854.707 341.472 857.954 338.22" fill="#21211D"/><path id="Fill 923" fill-rule="evenodd" clip-rule="evenodd" d="M674.557 521.933C677.801 518.681 677.801 513.412 674.557 510.16C671.311 506.912 666.051 506.912 662.804 510.16C659.56 513.412 659.56 518.681 662.804 521.933C666.051 525.185 671.311 525.185 674.557 521.933" fill="#21211D"/><path id="Fill 925" fill-rule="evenodd" clip-rule="evenodd" d="M674.557 326.448C671.311 323.198 666.051 323.198 662.804 326.448C659.56 329.7 659.56 334.969 662.804 338.221C666.051 341.471 671.311 341.471 674.557 338.221C677.801 334.969 677.801 329.7 674.557 326.448" fill="#21211D"/><path id="Fill 927" fill-rule="evenodd" clip-rule="evenodd" d="M857.954 510.161C854.707 506.911 849.447 506.911 846.201 510.161C842.957 513.413 842.957 518.682 846.201 521.934C849.447 525.184 854.707 525.184 857.954 521.934C861.198 518.682 861.198 513.413 857.954 510.161" fill="#21211D"/></g></g></g></svg>